<?xml version="1.0" encoding="UTF-8" standalone="no"?>
<!-- Created with Inkscape (http://www.inkscape.org/) -->

<svg
   width="59.443977mm"
   height="54.274025mm"
   viewBox="0 0 59.443977 54.274025"
   version="1.1"
   id="svg1"
   inkscape:version="1.3.2 (091e20e, 2023-11-25, custom)"
   sodipodi:docname="aimpere.svg"
   xml:space="preserve"
   xmlns:inkscape="http://www.inkscape.org/namespaces/inkscape"
   xmlns:sodipodi="http://sodipodi.sourceforge.net/DTD/sodipodi-0.dtd"
   xmlns="http://www.w3.org/2000/svg"
   xmlns:svg="http://www.w3.org/2000/svg"><sodipodi:namedview
     id="namedview1"
     pagecolor="#ffffff"
     bordercolor="#000000"
     borderopacity="0.25"
     inkscape:showpageshadow="2"
     inkscape:pageopacity="0.0"
     inkscape:pagecheckerboard="0"
     inkscape:deskcolor="#d1d1d1"
     inkscape:document-units="mm"
     showgrid="false"
     inkscape:zoom="2"
     inkscape:cx="433"
     inkscape:cy="517.25"
     inkscape:window-width="1920"
     inkscape:window-height="991"
     inkscape:window-x="-9"
     inkscape:window-y="-9"
     inkscape:window-maximized="1"
     inkscape:current-layer="svg1"><inkscape:grid
       id="grid2"
       units="mm"
       originx="-0.076291622"
       originy="-51.608344"
       spacingx="0.99999998"
       spacingy="1"
       empcolor="#0099e5"
       empopacity="0.30196078"
       color="#0099e5"
       opacity="0.14901961"
       empspacing="5"
       dotted="false"
       gridanglex="30"
       gridanglez="30"
       visible="false" /></sodipodi:namedview><defs
     id="defs1" /><path
     style="fill:#000000"
     d="m 13.260293,54.058946 c -2.485201,-0.60111 -4.756675,-2.62692 -4.009933,-3.57625 l 0.240938,-0.3063 h 0.396123 0.396123 l 0.762916,0.69138 c 3.979235,3.60614 10.054691,0.90399 10.049184,-4.469533 l -0.0011,-1.04625 -0.271367,-0.768731 C 18.920636,39.193649 11.453236,39.167081 9.448086,44.542792 l -0.258473,0.692953 -0.0163,1.45313 c -0.009,0.79922 -0.02335,1.52105 -0.03197,1.60406 -0.0086,0.083 -0.182019,0.220861 -0.38533,0.306351 l -0.369657,0.15543 -0.3303,-0.11514 C 7.683814,48.509806 7.561741,48.325085 7.454397,47.729135 l -0.07437,-0.41288 -0.724072,-0.14955 C 3.635575,46.542855 1.070756,44.086129 0.2102,40.992602 L 0,40.236974 V 24.368775 8.5005794 l 0.316714,-0.930004 c 0.455146,-1.336496 1.06802,-2.315019 2.086342,-3.331081 l 0.8918,-0.88982 1.048155,-0.524708 c 0.576486,-0.28859 1.430682,-0.608867 1.898213,-0.711728 l 0.850058,-0.18702 5.812526,0.03217 5.812526,0.03217 0.562458,0.843331 c 0.673052,1.009153 0.576192,1.051346 1.528253,-0.665712 1.579036,-2.84781597 2.823517,-2.88694297 4.357096,-0.136987 0.379758,0.680968 0.758365,1.329366 0.841348,1.440884 l 0.150879,0.202759 0.843972,-1.503485 c 1.118341,-1.99225797 1.694986,-2.38177697 2.864677,-1.93506797 0.572573,0.218668 0.73652,0.429036 1.755747,2.25288297 0.367634,0.657859 0.691262,1.173272 0.719173,1.145361 0.02791,-0.02791 0.429599,-0.723098 0.89264,-1.54486 l 0.841892,-1.49411197 0.516594,-0.26907 0.516595,-0.26907 0.483447,0.05016 c 0.736623,0.07642 1.110709,0.427561 1.849767,1.73630897 0.37051,0.656115 0.76335,1.341813 0.87299,1.523774 l 0.19934,0.330837 0.42981,-0.768581 c 0.59787,-1.069079 0.0823,-0.997473 7.18221,-0.997473 h 6.3247 l 0.89474,0.228836 c 2.68236,0.686032 4.81977,2.699376 5.74264,5.409314 l 0.31671,0.930004 0.0327,15.4031936 c 0.0225,10.569155 -0.007,15.657722 -0.0923,16.214223 -0.52798,3.424201 -3.04519,6.166084 -6.45244,7.028344 l -0.46702,0.11819 -0.14688,0.77428 c -0.55125,2.905893 -2.97632,5.386573 -5.9022,6.037523 l -0.88854,0.19768 -1.23732,-0.056 c -3.67467,-0.16623 -6.48593,-2.68134 -7.278733,-6.511973 l -0.06616,-0.31969 h -2.380921 -2.380921 v 2.719013 2.71901 l -0.204344,0.25235 c -0.13237,0.16347 -0.343924,0.25633 -0.600626,0.26363 l -0.396282,0.0113 -0.271253,-0.31535 -0.271253,-0.31535 v -6.149323 c 0,-6.493559 0.0086,-6.602185 0.541416,-6.844956 0.398342,-0.181497 0.546618,-0.162985 0.896038,0.111868 l 0.306304,0.240939 v 2.781575 2.781574 h 2.380921 2.380921 l 0.06705,-0.31969 c 0.213723,-1.019032 0.318463,-1.374285 0.578513,-1.962316 2.96272,-6.699228 12.88764,-5.835167 14.65613,1.27596 l 0.19792,0.795836 0.34276,-0.0686 c 2.18726,-0.437454 4.32503,-2.786958 4.80636,-5.282427 l 0.16454,-0.853042 v -9.696693 -9.696692 l -1.77282,0.002 -1.77282,0.002 -0.34875,0.596882 c -0.19182,0.328285 -0.49645,0.706636 -0.67697,0.84078 l -0.32821,0.243899 h -0.68045 -0.68046 l -0.32774,-0.244646 c -0.18025,-0.134581 -0.49063,-0.526927 -0.68971,-0.871879 -0.19909,-0.344952 -0.59744,-1.036932 -0.88523,-1.537734 l -0.52326,-0.910548 -0.85523,1.530957 c -1.67765,3.003183 -2.80901,2.952794 -4.57869,-0.203925 -0.81416,-1.45228 -0.67145,-1.467864 -1.59677,0.174376 -1.18732,2.107266 -1.9192,2.547448 -3.1166,1.874471 l -0.43965,-0.247102 -0.85493,-1.494986 c -1.029863,-1.800893 -0.838831,-1.79134 -1.801675,-0.09009 -0.8857,1.56494 -1.310195,2.017886 -2.000421,2.134499 l -0.466588,0.07883 -0.507078,-0.224305 -0.507079,-0.224305 -0.459805,-0.71358 -0.459805,-0.71358 -4.152971,-0.001 -4.15297,-10e-4 -0.166983,0.319689 c -1.282896,2.456108 -5.109087,1.34161 -4.93218,-1.436653 l 0.04575,-0.71844 0.34582,-0.559352 0.34582,-0.559351 0.621795,-0.324829 0.621796,-0.32483 h 0.605257 c 0.874638,0 1.762412,0.474766 2.216331,1.185256 l 0.348751,0.545878 4.41752,0.01043 4.41752,0.01043 0.270173,0.149892 c 0.148595,0.08244 0.492404,0.50258 0.764018,0.933643 l 0.493845,0.783751 0.11837,-0.153071 c 0.0651,-0.08419 0.396207,-0.650042 0.735787,-1.257451 1.715989,-3.069401 2.834362,-3.106803 4.522462,-0.151244 l 0.87638,1.53439 0.51425,-0.895012 c 0.28284,-0.492256 0.68026,-1.182731 0.88314,-1.534389 1.16188,-2.01387 2.52685,-1.63322 4.0644,1.133443 0.80809,1.454077 0.66037,1.47873 1.63724,-0.273234 1.59151,-2.854261 2.80164,-2.832823 4.4368,0.0786 0.91528,1.629666 0.8078,1.580123 1.35688,0.625449 0.55824,-0.970607 0.5968,-0.983005 3.0573,-0.983005 h 2.03518 l -0.043,-4.562833 -0.043,-4.5628326 -0.25426,-0.764014 c -0.68785,-2.066956 -2.50346,-3.742943 -4.58683,-4.234147 l -0.72776,-0.171587 -5.75974,-0.0017 -5.75974,-0.0017 -0.34712,0.608187 c -1.08827,1.906716 -2.50706,1.601129 -3.887927,-0.837407 -1.029798,-1.818566 -0.810267,-1.819599 -1.84017,0.0087 -1.585493,2.814517 -2.780477,2.803935 -4.365329,-0.03866 -0.992854,-1.780785 -0.793853,-1.770291 -1.744114,-0.09197 -0.433656,0.765911 -0.968459,1.550602 -1.188451,1.743758 l -0.399985,0.351191 h -0.618142 -0.618141 l -0.389906,-0.262757 c -0.261214,-0.176033 -0.660175,-0.730587 -1.208759,-1.68017 -0.45037,-0.779576 -0.852421,-1.449078 -0.893449,-1.487782 -0.04103,-0.0387 -0.448882,0.583987 -0.906345,1.383756 -1.50507,2.631273 -2.688196,2.916261 -3.991965,0.961573 l -0.439135,-0.658378 -5.199015,0.0017 -5.199016,0.0017 -0.72776,0.171587 C 4.5127,4.3424014 2.697098,6.0183884 2.009247,8.0853084 l -0.254256,0.764014 -0.04302,4.5628326 -0.04302,4.562833 h 2.49365 2.493651 l 0.146391,-0.353462 c 0.421863,-1.018466 2.107453,-1.687554 3.202499,-1.271219 l 0.313304,0.119118 3.151656,-1.813257 c 1.733412,-0.997292 3.292526,-1.841432 3.4647,-1.875866 l 0.313043,-0.06261 0.298332,0.298332 c 0.801059,0.801059 0.600833,1.00494 -3.034626,3.090007 l -2.923489,1.676726 0.10571,0.278038 c 1.106289,2.90976 -3.455153,4.811446 -4.882948,2.035723 L 6.676231,19.835005 H 4.180935 1.685638 v 9.696692 9.696693 l 0.164538,0.853042 c 0.478383,2.480165 2.172352,4.403759 4.588217,5.210171 0.840901,0.28069 1.059772,0.2482 1.059772,-0.15732 0,-1.052443 0.998429,-2.923789 2.20876,-4.13986 4.248946,-4.269101 11.653959,-2.127453 12.991406,3.757321 l 0.202472,0.890879 h 1.714973 1.714974 v -1.094874 c 0,-1.673826 0.854691,-2.447726 1.572094,-1.42349 l 0.171663,0.245085 v 3.171019 3.171023 l -0.232501,0.2325 c -0.377815,0.37782 -0.871915,0.34991 -1.249693,-0.0706 l -0.261563,-0.29113 v -1.0979 -1.097903 h -1.720499 -1.720499 l -0.146432,0.72657 c -0.08054,0.399613 -0.385282,1.223543 -0.67721,1.830943 l -0.530778,1.10438 -0.944494,0.93172 c -1.952631,1.92623 -4.718737,2.7107 -7.330545,2.07896 z m 32.886335,-1.73555 c 2.70878,-0.70554 4.4796,-3.04934 4.47665,-5.925153 l -10e-4,-1.04625 -0.27137,-0.768731 c -1.8997,-5.381478 -9.46126,-5.408412 -11.36202,-0.04047 -1.56665,4.424404 2.61053,8.965034 7.15782,7.780614 z m -1.76612,-2.50706 c -0.45434,-0.16808 -0.61218,-0.56148 -0.61218,-1.525823 v -0.90414 h -0.91433 -0.91432 l -0.30631,-0.24094 -0.3063,-0.24093 v -0.39844 c 0,-0.24344 0.0905,-0.48889 0.2325,-0.63094 l 0.2325,-0.2325 h 0.97656 0.97657 l 0.0406,-1.055698 0.0406,-1.055696 0.2325,-0.169983 c 0.40878,-0.298866 0.75373,-0.322921 1.08543,-0.07569 l 0.30957,0.230727 0.0334,1.063171 0.0334,1.063169 h 0.98906 0.98905 l 0.28534,0.28534 c 0.36366,0.36367 0.36366,0.80942 0,1.17308 l -0.28534,0.28534 h -0.99342 -0.99341 v 0.96227 c 0,1.286273 -0.35995,1.753133 -1.13157,1.467693 z M 9.814738,19.412451 c 0.67451,-0.8575 -0.441428,-1.92905 -1.233764,-1.184689 -0.581339,0.54614 -0.204674,1.490993 0.594386,1.490993 h 0.398439 z m 11.400989,0.0738 c 0.142053,-0.142054 0.232501,-0.387502 0.232501,-0.630941 v -0.398439 l -0.306304,-0.240939 c -0.8575,-0.674509 -1.92905,0.441428 -1.184689,1.233763 0.321817,0.342558 0.934687,0.36036 1.258492,0.03656 z m -9.109989,27.659182 -0.306304,-0.24093 v -0.39844 c 0,-0.24344 0.09045,-0.48889 0.232501,-0.63094 l 0.232501,-0.2325 h 2.853422 2.853422 l 0.285342,0.28534 c 0.156939,0.15694 0.285343,0.42088 0.285343,0.58653 0,0.16566 -0.128404,0.4296 -0.285343,0.58654 l -0.285342,0.28534 h -2.779619 -2.779619 z"
     id="path15"
     sodipodi:nodetypes="cscccsccssccsscsscsscccsscsscccsssscssssscccssscsscsscccscssccscccccsccccssscccccscsccscccccssccccsscsssscssscccccccsscccccsscccsscssscscssssscccsscccsscssscccssssscccssccccccscsscsscsccccccssssscccsscccsscccccsscscccccsscccscccccsccccccsscccccsscccsccssscssscssssccsscccssscccc" /></svg>
