<?xml version="1.0" encoding="UTF-8" standalone="no"?>
<!-- Created with Inkscape (http://www.inkscape.org/) -->

<svg
   width="54.913425mm"
   height="51.370552mm"
   viewBox="0 0 54.913425 51.370552"
   version="1.1"
   id="svg1"
   inkscape:version="1.3.2 (091e20e, 2023-11-25, custom)"
   sodipodi:docname="aimpere.svg"
   xml:space="preserve"
   xmlns:inkscape="http://www.inkscape.org/namespaces/inkscape"
   xmlns:sodipodi="http://sodipodi.sourceforge.net/DTD/sodipodi-0.dtd"
   xmlns="http://www.w3.org/2000/svg"
   xmlns:svg="http://www.w3.org/2000/svg"><sodipodi:namedview
     id="namedview1"
     pagecolor="#ffffff"
     bordercolor="#000000"
     borderopacity="0.25"
     inkscape:showpageshadow="2"
     inkscape:pageopacity="0.0"
     inkscape:pagecheckerboard="0"
     inkscape:deskcolor="#d1d1d1"
     inkscape:document-units="mm"
     showgrid="false"
     inkscape:zoom="2"
     inkscape:cx="433"
     inkscape:cy="517.25"
     inkscape:window-width="1920"
     inkscape:window-height="991"
     inkscape:window-x="-9"
     inkscape:window-y="-9"
     inkscape:window-maximized="1"
     inkscape:current-layer="svg1"><inkscape:grid
       id="grid2"
       units="mm"
       originx="-129.42299"
       originy="-0.39548464"
       spacingx="0.99999998"
       spacingy="1"
       empcolor="#0099e5"
       empopacity="0.30196078"
       color="#0099e5"
       opacity="0.14901961"
       empspacing="5"
       dotted="false"
       gridanglex="30"
       gridanglez="30"
       visible="false" /></sodipodi:namedview><defs
     id="defs1" /><path
     style="fill:#000000;stroke-width:0.940368"
     d="m 4.2812281,51.211054 c -2.04641,-0.42783 -3.78448997,-2.143823 -4.16410997,-4.111167 -0.15615,-0.809253 -0.15615,-33.29154 0,-34.100796 0.38479,-1.994152 2.12165997,-3.689273 4.21753997,-4.1161681 l 0.75853,-0.1544988 h 22.3630699 22.36307 l 0.77438,0.1576894 c 2.08485,0.4245358 3.80339,2.1079935 4.19916,4.1134535 0.16076,0.814499 0.16076,33.285341 0,34.09984 -0.39421,1.997586 -2.1225,3.690588 -4.19916,4.113452 l -0.77438,0.157691 -22.42027,-0.0066 -22.4202599,-0.0066 z m 46.1633799,-2.209093 0.60962,-0.173969 0.59206,-0.568941 c 0.39094,-0.375659 0.65721,-0.752643 0.78381,-1.10971 l 0.19175,-0.540787 V 33.162686 19.716814 H 27.456258 2.2906481 v 13.445872 13.445868 l 0.19175,0.540787 c 0.26378,0.743916 1.18889,1.625473 1.93763,1.846403 l 0.55877,0.164875 22.4280899,0.0075 22.42811,0.0075 z M 5.1629681,45.94471 c -0.15036,-0.08011 -0.34156,-0.263819 -0.42491,-0.408307 l -0.15153,-0.262711 -0.004,-11.292756 -0.004,-11.292758 0.33145,-0.356482 0.33147,-0.356484 h 0.48097 0.48096 l 0.33147,0.356484 0.33145,0.356482 v 11.260106 11.260109 l -0.13666,0.288223 c -0.25048,0.528271 -1.0088,0.745185 -1.56659,0.448094 z m 4.57556,0 c -0.64037,-0.341071 -0.75533,-1.088297 -0.25096,-1.631096 l 0.33357,-0.358985 2.5261499,-0.03348 2.52616,-0.03348 V 39.88319 35.878723 l 0.33352,-0.358981 0.33352,-0.358981 1.95426,-0.03472 1.95427,-0.03472 v -0.980312 -0.980326 l 0.33351,-0.358981 0.33352,-0.358981 1.95427,-0.03472 1.95426,-0.03472 v -0.49287 c 0,-1.20811 0.30171,-1.361328 2.68062,-1.361328 h 1.89495 v -0.602832 -0.602838 l 0.33352,-0.358981 0.33351,-0.358981 1.95426,-0.03472 1.95426,-0.03472 V 27.79049 27.08497 l 0.33378,-0.358981 0.3338,-0.358981 h 2.7641 2.7641 l 0.33379,0.358981 0.33379,0.358981 v 8.401354 8.401351 l 2.52615,0.03348 2.52615,0.03348 0.33358,0.358985 c 0.50758,0.54625 0.38824,1.308231 -0.25496,1.627863 l -0.31522,0.156636 -17.42142,-0.0037 -17.42143,-0.0037 z m 9.7104899,-5.342701 v -3.297664 h -1.14389 -1.14389 v 3.297664 3.297664 h 1.14389 1.14389 z m 4.57556,-1.374027 v -4.671689 h -1.1439 -1.14389 v 4.671689 4.671691 h 1.14389 1.1439 z m 4.57557,-0.934341 v -5.606022 h -1.14389 -1.1439 v 5.606022 5.606032 h 1.1439 1.14389 z m 4.57555,-0.989296 v -6.595324 h -1.14388 -1.14389 v 6.595324 6.595328 h 1.14389 1.14388 z m 4.57557,-1.09922 V 28.51058 h -1.14389 -1.14389 v 7.694545 7.694548 h 1.14389 1.14389 z m 10.87955,9.739585 c -0.15035,-0.08011 -0.34156,-0.263819 -0.4249,-0.408307 l -0.15153,-0.262711 -0.004,-11.292756 -0.004,-11.292758 0.33147,-0.356482 0.33146,-0.356484 h 0.48097 0.48097 l 0.33147,0.356484 0.33145,0.356482 v 11.260106 11.260109 l -0.13666,0.288223 c -0.25048,0.528271 -1.0088,0.745185 -1.56659,0.448094 z M 9.7385281,30.555623 c -0.63913,-0.340407 -0.75535,-1.0884 -0.25307,-1.628603 l 0.33146,-0.356483 h 0.4809699 0.48096 l 0.33147,0.356483 c 0.85422,0.918707 -0.24792,2.227188 -1.3717899,1.628603 z m 3.4316799,0 c -0.64051,-0.341136 -0.75538,-1.088387 -0.25076,-1.631101 l 0.33378,-0.358981 h 2.76411 2.76411 l 0.33378,0.358981 c 0.50782,0.546145 0.38856,1.308183 -0.25474,1.627859 l -0.31523,0.15664 -2.55083,-0.0038 -2.55085,-0.0038 z M 9.7385281,27.257961 c -0.63913,-0.340407 -0.75535,-1.0884 -0.25307,-1.628604 l 0.33146,-0.356483 h 0.4809699 0.48096 l 0.33147,0.356483 c 0.85422,0.918708 -0.24792,2.22719 -1.3717899,1.628604 z m 3.4316799,0 c -0.64051,-0.341136 -0.75538,-1.088387 -0.25076,-1.631102 l 0.33378,-0.358981 h 2.76411 2.76411 l 0.33378,0.358981 c 0.50782,0.546146 0.38856,1.308184 -0.25474,1.62786 l -0.31523,0.15664 -2.55083,-0.0038 -2.55085,-0.0038 z M 9.7385281,23.9603 c -0.63913,-0.340408 -0.75535,-1.088401 -0.25307,-1.628604 l 0.33146,-0.356484 h 0.4809699 0.48096 l 0.33147,0.356484 c 0.85422,0.918707 -0.24792,2.227189 -1.3717899,1.628604 z m 3.4316799,0 c -0.64051,-0.341138 -0.75538,-1.088388 -0.25076,-1.631103 l 0.33378,-0.358981 h 2.76411 2.76411 l 0.33378,0.358981 c 0.50782,0.546146 0.38856,1.308183 -0.25474,1.62786 l -0.31523,0.15664 -2.55083,-0.0038 -2.55085,-0.0038 z m 39.45164,-8.455904 v -2.013977 l -0.19175,-0.540779 c -0.1266,-0.35707 -0.39287,-0.734051 -0.78381,-1.109715 l -0.59206,-0.568939 -0.60962,-0.173969 -0.60961,-0.173968 H 27.456258 5.0775181 l -0.60962,0.173968 -0.60963,0.173969 -0.59206,0.568939 c -0.39093,0.375664 -0.6572,0.752645 -0.78381,1.109715 l -0.19175,0.540779 v 2.013977 2.013977 H 27.456258 52.621848 Z M 5.7223281,14.220711 v -1.09922 h 1.14389 1.14389 v 1.09922 1.09922 h -1.14389 -1.14389 z m 3.43168,0 v -1.09922 h 1.1438799 1.14388 v 1.09922 1.09922 h -1.14388 -1.1438799 z m 3.4316499,0 v -1.09922 h 1.1439 1.14389 v 1.09922 1.09922 h -1.14389 -1.1439 z m 8.59178,0.945824 c -0.64049,-0.341139 -0.75537,-1.088387 -0.25075,-1.631104 l 0.33379,-0.35898 h 11.91522 11.91524 l 0.33378,0.35898 c 0.50782,0.546147 0.38856,1.308184 -0.25474,1.627861 l -0.31522,0.156639 -11.70197,-0.0038 -11.70197,-0.0038 z m 26.3095,0 c -0.63913,-0.340409 -0.75537,-1.088402 -0.25308,-1.628605 l 0.33146,-0.356482 h 0.48097 0.48097 l 0.33146,0.356482 c 0.85422,0.918706 -0.24791,2.22719 -1.37178,1.628605 z M 9.2343781,6.3742991 C 6.2951981,5.321636 6.0727881,1.5619298 8.8728481,0.26306892 L 9.4399681,0 h 0.8579199 0.85792 l 0.56711,0.26306892 c 0.71728,0.33271727 1.3173,0.90676208 1.67229,1.59988308 l 0.27716,0.5411366 v 0.8244151 0.8244159 l -0.31915,0.6245334 c -0.73509,1.4384293 -2.64427,2.2249616 -4.1188399,1.6968461 z M 10.876168,4.2145445 c 0.63343,-0.3257651 0.72235,-1.187163 0.17669,-1.7115263 L 10.663928,2.129283 h -0.36604 -0.3660399 l -0.38893,0.3737352 c -0.94278,0.9059713 0.15625,2.3168366 1.3332499,1.7115263 z m 8.01349,2.1582247 c -0.63913,-0.3404076 -0.75536,-1.0884018 -0.25307,-1.6286047 l 0.33146,-0.3564823 h 0.48097 0.48096 l 0.33147,0.3564823 c 0.85423,0.9187076 -0.24792,2.2271894 -1.37179,1.6286047 z m 27.62697,-0.00123 C 45.863538,6.137895 45.282308,5.6385548 44.958298,5.0327933 l -0.28649,-0.5356074 0.004,-0.7167758 c 0.006,-1.1146785 0.52191,-1.912026 1.58163,-2.4487411 l 0.47293,-0.2395268 0.74389,0.00225 0.74388,0.00225 0.61139,0.3197685 c 0.74575,0.3900354 1.23854,1.038548 1.41965,1.8682875 l 0.13177,0.6037022 -0.14159,0.5219061 c -0.19335,0.7126965 -0.66658,1.3342094 -1.30441,1.7131542 l -0.5337,0.3170724 -0.72105,0.044695 c -0.45596,0.028268 -0.88391,-0.013569 -1.16403,-0.1137845 z m 1.46266,-2.3977186 0.10873,-0.2989571 -0.21018,-0.2231729 c -0.49193,-0.52235 -1.2055,0.037718 -0.85345,0.6698505 l 0.12198,0.2190372 0.3621,-0.0339 0.3621,-0.0339 z m -9.64349,1.2997391 C 37.696678,4.9331521 37.580438,4.1851579 38.082728,3.644955 l 0.33147,-0.3564821 h 0.48097 0.48097 l 0.33145,0.3564821 c 0.85423,0.9187077 -0.24791,2.2271895 -1.37179,1.6286047 z M 28.040778,3.0751071 c -0.63912,-0.3404076 -0.75535,-1.0884018 -0.25307,-1.6286047 l 0.33147,-0.3564823 h 0.48097 0.48097 l 0.33146,0.3564823 c 0.85422,0.9187076 -0.24792,2.2271894 -1.3718,1.6286047 z"
     id="path13" /></svg>
