<?xml version="1.0" encoding="UTF-8" standalone="no"?>
<!-- Created with Inkscape (http://www.inkscape.org/) -->

<svg
   width="51.243927mm"
   height="51.243931mm"
   viewBox="0 0 51.243927 51.243931"
   version="1.1"
   id="svg1"
   inkscape:version="1.3.2 (091e20e, 2023-11-25, custom)"
   sodipodi:docname="aimpere.svg"
   xml:space="preserve"
   xmlns:inkscape="http://www.inkscape.org/namespaces/inkscape"
   xmlns:sodipodi="http://sodipodi.sourceforge.net/DTD/sodipodi-0.dtd"
   xmlns="http://www.w3.org/2000/svg"
   xmlns:svg="http://www.w3.org/2000/svg"><sodipodi:namedview
     id="namedview1"
     pagecolor="#ffffff"
     bordercolor="#000000"
     borderopacity="0.25"
     inkscape:showpageshadow="2"
     inkscape:pageopacity="0.0"
     inkscape:pagecheckerboard="0"
     inkscape:deskcolor="#d1d1d1"
     inkscape:document-units="mm"
     showgrid="false"
     inkscape:zoom="2"
     inkscape:cx="433"
     inkscape:cy="517.25"
     inkscape:window-width="1920"
     inkscape:window-height="991"
     inkscape:window-x="-9"
     inkscape:window-y="-9"
     inkscape:window-maximized="1"
     inkscape:current-layer="svg1"><inkscape:grid
       id="grid2"
       units="mm"
       originx="-66.581634"
       originy="-0.31026766"
       spacingx="0.99999998"
       spacingy="1"
       empcolor="#0099e5"
       empopacity="0.30196078"
       color="#0099e5"
       opacity="0.14901961"
       empspacing="5"
       dotted="false"
       gridanglex="30"
       gridanglez="30"
       visible="false" /></sodipodi:namedview><defs
     id="defs1" /><path
     id="path12-6"
     style="display:inline;fill:#000000"
     sodipodi:type="inkscape:offset"
     inkscape:radius="-0.013704032"
     inkscape:original="M 64.011719 51.447266 L 63.595703 51.644531 C 63.367363 51.752884 63.063092 52.005967 62.919922 52.207031 L 62.660156 52.572266 L 62.589844 53.302734 L 62.517578 54.033203 L 61.789062 54.232422 C 61.388573 54.342287 60.789681 54.566737 60.457031 54.730469 L 59.851562 55.027344 L 59.121094 55.757812 L 58.392578 56.486328 L 58.060547 57.152344 C 57.878777 57.518815 57.6551 58.119207 57.5625 58.486328 L 57.394531 59.154297 L 56.666016 59.224609 L 55.9375 59.296875 L 55.570312 59.556641 C 55.369253 59.699811 55.116163 60.004084 55.007812 60.232422 L 54.8125 60.646484 L 54.8125 62.460938 L 54.8125 64.275391 L 55.083984 64.677734 C 55.234174 64.898402 55.504757 65.188351 55.685547 65.322266 L 56.015625 65.564453 L 56.6875 65.621094 L 57.359375 65.677734 L 57.359375 66.314453 L 57.359375 66.953125 L 56.654297 67.003906 L 55.949219 67.054688 L 55.578125 67.318359 C 55.373785 67.463862 55.116163 67.76971 55.007812 67.998047 L 54.8125 68.414062 L 54.8125 70.228516 L 54.8125 72.042969 L 55.083984 72.443359 C 55.234174 72.664027 55.504757 72.955925 55.685547 73.089844 L 56.015625 73.332031 L 56.6875 73.388672 L 57.359375 73.443359 L 57.359375 75.355469 L 57.359375 77.267578 L 56.6875 77.324219 L 56.015625 77.378906 L 55.685547 77.623047 C 55.504757 77.756961 55.234174 78.046909 55.083984 78.267578 L 54.8125 78.667969 L 54.8125 80.482422 L 54.8125 82.296875 L 55.009766 82.714844 L 55.207031 83.130859 L 55.71875 83.429688 L 56.228516 83.730469 L 56.794922 83.730469 L 57.359375 83.730469 L 57.359375 84.382812 L 57.359375 85.035156 L 56.6875 85.089844 L 56.015625 85.146484 L 55.685547 85.390625 C 55.504757 85.52454 55.234174 85.814487 55.083984 86.035156 L 54.8125 86.435547 L 54.8125 88.25 L 54.8125 90.064453 L 55.005859 90.474609 L 55.201172 90.886719 L 55.644531 91.162109 L 56.085938 91.435547 L 56.742188 91.496094 L 57.396484 91.558594 L 57.597656 92.285156 C 57.707436 92.685651 57.93002 93.286499 58.09375 93.619141 L 58.392578 94.222656 L 59.121094 94.953125 L 59.851562 95.683594 L 60.457031 95.982422 C 60.789681 96.146154 61.388573 96.368652 61.789062 96.478516 L 62.517578 96.679688 L 62.589844 97.40625 L 62.660156 98.134766 L 62.863281 98.423828 C 62.974691 98.582895 63.269401 98.836852 63.519531 98.988281 L 63.974609 99.263672 L 65.806641 99.263672 L 67.640625 99.263672 L 68.041016 98.990234 C 68.261686 98.840048 68.551627 98.569464 68.685547 98.388672 L 68.929688 98.060547 L 68.984375 97.388672 L 69.041016 96.714844 L 69.693359 96.714844 L 70.345703 96.714844 L 70.345703 97.273438 L 70.345703 97.832031 L 70.542969 98.248047 L 70.742188 98.666016 L 71.251953 98.964844 L 71.763672 99.263672 L 73.583984 99.263672 L 75.40625 99.263672 L 75.808594 98.990234 C 76.029264 98.840048 76.319215 98.569464 76.453125 98.388672 L 76.697266 98.060547 L 76.751953 97.388672 L 76.808594 96.714844 L 78.720703 96.714844 L 80.630859 96.714844 L 80.6875 97.388672 L 80.742188 98.060547 L 80.986328 98.388672 C 81.120248 98.569464 81.410189 98.840048 81.630859 98.990234 L 82.033203 99.263672 L 83.847656 99.263672 L 85.662109 99.263672 L 86.076172 99.066406 C 86.304502 98.958053 86.610349 98.702388 86.755859 98.498047 L 87.021484 98.126953 L 87.072266 97.421875 L 87.123047 96.714844 L 87.761719 96.714844 L 88.398438 96.714844 L 88.455078 97.388672 L 88.509766 98.060547 L 88.753906 98.388672 C 88.887826 98.569464 89.177768 98.840048 89.398438 98.990234 L 89.800781 99.263672 L 91.615234 99.263672 L 93.429688 99.263672 L 93.84375 99.066406 C 94.07209 98.958053 94.376361 98.70497 94.519531 98.503906 L 94.779297 98.138672 L 94.851562 97.414062 L 94.921875 96.6875 L 95.832031 96.425781 L 96.742188 96.162109 L 97.441406 95.697266 C 98.655336 94.890816 99.430945 93.789996 99.84375 92.285156 L 100.04297 91.558594 L 100.77344 91.486328 L 101.50391 91.416016 L 101.86914 91.154297 C 102.07021 91.011127 102.32328 90.708806 102.43164 90.480469 L 102.62891 90.064453 L 102.62891 88.25 L 102.62891 86.435547 L 102.35547 86.035156 C 102.20528 85.814487 101.9347 85.52454 101.75391 85.390625 L 101.42383 85.146484 L 100.75195 85.089844 L 100.08008 85.035156 L 100.08008 84.396484 L 100.08008 83.759766 L 100.78516 83.707031 L 101.49219 83.65625 L 101.86328 83.392578 C 102.06762 83.247075 102.32328 82.941228 102.43164 82.712891 L 102.62891 82.296875 L 102.62891 80.482422 L 102.62891 78.667969 L 102.35547 78.267578 C 102.20528 78.046909 101.9347 77.756961 101.75391 77.623047 L 101.42383 77.378906 L 100.75195 77.324219 L 100.08008 77.267578 L 100.08008 75.355469 L 100.08008 73.443359 L 100.75195 73.388672 L 101.42383 73.332031 L 101.75391 73.089844 C 101.9347 72.955929 102.20528 72.664027 102.35547 72.443359 L 102.62891 72.042969 L 102.62695 70.210938 L 102.625 68.376953 L 102.35352 67.904297 L 102.08203 67.431641 L 101.66016 67.207031 L 101.23633 66.982422 L 100.6582 66.982422 L 100.08008 66.982422 L 100.08008 66.314453 L 100.08008 65.646484 L 100.5625 65.646484 L 101.04492 65.646484 L 101.22656 65.371094 L 101.40625 65.095703 L 101.33398 64.816406 L 101.25977 64.535156 L 100.96484 64.423828 C 100.80275 64.362197 100.53753 64.3125 100.375 64.3125 L 100.08008 64.3125 L 100.08008 62.369141 L 100.08008 60.427734 L 100.50391 60.427734 L 100.92969 60.427734 L 101.17188 60.671875 L 101.41406 60.914062 L 101.41406 61.820312 L 101.41406 62.728516 L 101.71875 62.927734 L 102.02148 63.126953 L 102.32617 62.927734 L 102.62891 62.728516 L 102.62891 61.695312 L 102.62891 60.662109 L 102.39258 60.199219 C 102.26293 59.945077 102.00437 59.637504 101.81836 59.515625 L 101.48047 59.292969 L 100.76172 59.224609 L 100.04297 59.154297 L 99.84375 58.425781 C 99.430945 56.920942 98.655336 55.820122 97.441406 55.013672 L 96.742188 54.548828 L 95.832031 54.287109 L 94.921875 54.023438 L 94.861328 53.373047 L 94.800781 52.722656 L 94.558594 52.310547 L 94.314453 51.900391 L 93.892578 51.673828 L 93.46875 51.447266 L 91.634766 51.447266 L 89.800781 51.447266 L 89.398438 51.720703 C 89.177768 51.870889 88.887826 52.141473 88.753906 52.322266 L 88.511719 52.650391 L 88.455078 53.324219 L 88.398438 53.996094 L 87.746094 53.996094 L 87.09375 53.996094 L 87.091797 53.419922 L 87.089844 52.84375 L 86.818359 52.371094 L 86.548828 51.896484 L 86.125 51.671875 L 85.703125 51.447266 L 83.867188 51.447266 L 82.033203 51.447266 L 81.630859 51.720703 C 81.410189 51.870889 81.120248 52.141473 80.986328 52.322266 L 80.744141 52.650391 L 80.6875 53.324219 L 80.632812 53.996094 L 78.720703 53.996094 L 76.808594 53.996094 L 76.751953 53.324219 L 76.697266 52.650391 L 76.453125 52.322266 C 76.319205 52.141473 76.029264 51.870889 75.808594 51.720703 L 75.408203 51.447266 L 73.59375 51.447266 L 71.779297 51.447266 L 71.363281 51.644531 C 71.134951 51.752884 70.829104 52.008551 70.683594 52.212891 L 70.419922 52.583984 L 70.367188 53.291016 L 70.316406 53.996094 L 69.679688 53.996094 L 69.041016 53.996094 L 68.984375 53.324219 L 68.929688 52.650391 L 68.685547 52.322266 C 68.551627 52.141473 68.261686 51.870889 68.041016 51.720703 L 67.640625 51.447266 L 65.826172 51.447266 L 64.011719 51.447266 z M 64.277344 52.660156 L 65.707031 52.660156 L 67.136719 52.660156 L 67.40625 52.849609 L 67.675781 53.039062 L 67.675781 53.517578 L 67.675781 53.996094 L 65.734375 53.996094 L 63.792969 53.996094 L 63.792969 53.570312 L 63.792969 53.146484 L 64.035156 52.904297 L 64.277344 52.660156 z M 72.044922 52.660156 L 73.474609 52.660156 L 74.904297 52.660156 L 75.173828 52.849609 L 75.443359 53.039062 L 75.443359 53.517578 L 75.443359 53.996094 L 73.501953 53.996094 L 71.560547 53.996094 L 71.560547 53.570312 L 71.560547 53.146484 L 71.802734 52.904297 L 72.044922 52.660156 z M 82.537109 52.660156 L 83.964844 52.660156 L 85.394531 52.660156 L 85.636719 52.904297 L 85.880859 53.146484 L 85.880859 53.570312 L 85.880859 53.996094 L 83.939453 53.996094 L 81.996094 53.996094 L 81.996094 53.517578 L 81.996094 53.039062 L 82.265625 52.849609 L 82.537109 52.660156 z M 90.302734 52.660156 L 91.732422 52.660156 L 93.162109 52.660156 L 93.404297 52.904297 L 93.648438 53.146484 L 93.648438 53.570312 L 93.648438 53.996094 L 91.705078 53.996094 L 89.763672 53.996094 L 89.763672 53.517578 L 89.763672 53.039062 L 90.033203 52.849609 L 90.302734 52.660156 z M 61.912109 55.392578 L 78.720703 55.392578 L 95.529297 55.392578 L 96.195312 55.734375 C 97.081682 56.188188 97.831221 56.928079 98.300781 57.818359 L 98.683594 58.546875 L 98.683594 75.355469 L 98.683594 92.164062 L 98.300781 92.892578 L 97.916016 93.621094 L 97.390625 94.125 C 97.101235 94.401875 96.562432 94.784239 96.195312 94.974609 L 95.529297 95.320312 L 78.902344 95.339844 L 62.275391 95.361328 L 61.972656 95.267578 C 60.778226 94.898557 59.679296 93.968068 59.097656 92.832031 L 58.755859 92.164062 L 58.755859 75.355469 L 58.755859 58.546875 L 59.103516 57.861328 L 59.451172 57.175781 L 60.013672 56.625 C 60.323222 56.322166 60.877021 55.920301 61.244141 55.732422 L 61.912109 55.392578 z M 68.503906 56.523438 L 65.451172 56.566406 L 62.396484 56.609375 L 61.789062 56.929688 C 61.071693 57.308541 60.647289 57.739973 60.255859 58.486328 L 59.96875 59.033203 L 59.96875 75.355469 L 59.96875 91.679688 L 60.255859 92.224609 C 60.776999 93.218291 61.575835 93.848924 62.578125 94.054688 C 62.811745 94.102647 70.185371 94.132647 78.962891 94.123047 L 94.921875 94.105469 L 95.558594 93.818359 L 96.193359 93.53125 L 96.603516 93.078125 C 96.828256 92.82936 97.113984 92.358562 97.240234 92.03125 L 97.470703 91.435547 L 97.470703 75.234375 L 97.470703 59.033203 L 97.183594 58.486328 C 96.792744 57.741066 96.368571 57.309341 95.650391 56.927734 L 95.042969 56.605469 L 82.982422 56.572266 L 70.919922 56.537109 L 70.632812 56.726562 L 70.345703 56.914062 L 70.345703 57.267578 L 70.345703 57.623047 L 70.498047 57.720703 L 70.650391 57.818359 L 82.806641 57.878906 L 94.964844 57.939453 L 95.300781 58.191406 C 95.485091 58.329029 95.747146 58.59106 95.884766 58.775391 L 96.134766 59.111328 L 96.134766 75.355469 L 96.134766 91.599609 L 95.884766 91.935547 C 95.747136 92.119878 95.485111 92.383861 95.300781 92.521484 L 94.964844 92.771484 L 78.720703 92.771484 L 62.474609 92.771484 L 62.140625 92.521484 C 61.956295 92.383861 61.692307 92.119639 61.554688 91.935547 L 61.304688 91.601562 L 61.263672 90.275391 L 61.222656 88.949219 L 66.201172 88.949219 L 71.177734 88.949219 L 71.369141 88.757812 C 71.474051 88.65292 71.560547 88.437617 71.560547 88.279297 L 71.560547 87.990234 L 71.289062 87.802734 L 71.019531 87.613281 L 66.132812 87.613281 L 61.244141 87.613281 L 61.244141 84.386719 L 61.244141 81.160156 L 62.570312 81.201172 L 63.896484 81.242188 L 64.232422 81.492188 C 64.416512 81.629811 64.669112 81.880314 64.794922 82.048828 L 65.023438 82.355469 L 65.132812 83.222656 L 65.242188 84.089844 L 65.478516 84.554688 C 65.763756 85.11381 66.565768 85.863365 67.173828 86.138672 L 67.615234 86.337891 L 71.886719 86.376953 L 76.15625 86.416016 L 76.40625 86.283203 C 76.54308 86.209975 76.688369 86.013339 76.730469 85.845703 L 76.806641 85.541016 L 76.591797 85.302734 L 76.376953 85.064453 L 72.205078 85.064453 L 68.033203 85.064453 L 67.642578 84.898438 C 67.427788 84.806535 67.097896 84.56698 66.910156 84.367188 L 66.568359 84.003906 L 66.439453 83.107422 C 66.224743 81.630144 65.690911 80.807778 64.582031 80.242188 L 63.974609 79.933594 L 62.609375 79.873047 L 61.244141 79.8125 L 61.244141 79.222656 L 61.244141 78.632812 L 63.480469 78.632812 L 65.71875 78.632812 L 66.013672 78.519531 L 66.308594 78.408203 L 66.380859 78.128906 L 66.455078 77.849609 L 66.273438 77.574219 L 66.091797 77.296875 L 63.667969 77.296875 L 61.244141 77.296875 L 61.244141 76.630859 L 61.244141 75.962891 L 63.667969 75.962891 L 66.091797 75.962891 L 66.291016 75.658203 L 66.490234 75.355469 L 66.291016 75.052734 L 66.091797 74.748047 L 63.667969 74.748047 L 61.244141 74.748047 L 61.244141 74.082031 L 61.244141 73.414062 L 64.90625 73.414062 L 68.566406 73.414062 L 68.789062 73.212891 C 69.078232 72.951186 69.069908 72.624598 68.767578 72.322266 L 68.525391 72.078125 L 64.884766 72.078125 L 61.244141 72.078125 L 61.244141 71.488281 L 61.244141 70.896484 L 62.548828 70.841797 L 63.853516 70.785156 L 64.458984 70.515625 C 65.623314 69.997194 66.140602 69.249991 66.414062 67.683594 L 66.580078 66.728516 L 66.794922 66.439453 C 66.912742 66.279902 67.206509 66.036455 67.449219 65.898438 L 67.890625 65.646484 L 70.875 65.646484 L 73.859375 65.646484 L 74.048828 65.359375 L 74.236328 65.072266 L 74.117188 64.759766 L 73.998047 64.445312 L 73.578125 64.367188 C 73.346905 64.323818 71.910679 64.310168 70.386719 64.335938 L 67.615234 64.382812 L 67.173828 64.578125 C 66.569788 64.845801 65.765366 65.593973 65.478516 66.15625 L 65.242188 66.623047 L 65.132812 67.490234 L 65.023438 68.357422 L 64.794922 68.662109 C 64.669102 68.830623 64.416512 69.081127 64.232422 69.21875 L 63.896484 69.46875 L 62.570312 69.511719 L 61.244141 69.552734 L 61.244141 66.324219 L 61.244141 63.097656 L 63.480469 63.097656 L 65.71875 63.097656 L 66.013672 62.986328 L 66.308594 62.875 L 66.380859 62.59375 L 66.453125 62.314453 L 66.273438 62.039062 L 66.091797 61.763672 L 63.658203 61.763672 L 61.222656 61.763672 L 61.263672 60.4375 L 61.304688 59.109375 L 61.554688 58.775391 C 61.692318 58.5913 61.956465 58.329028 62.140625 58.191406 L 62.474609 57.939453 L 65.527344 57.904297 L 68.580078 57.867188 L 68.794922 57.671875 C 69.080762 57.413207 69.067832 57.087366 68.757812 56.777344 L 68.503906 56.523438 z M 86.171875 59.214844 L 86.025391 59.359375 C 85.945251 59.439474 85.880859 59.648718 85.880859 59.822266 C 85.880859 59.995814 85.945291 60.203103 86.025391 60.283203 L 86.171875 60.427734 L 89.123047 60.427734 L 92.074219 60.427734 L 92.212891 60.125 L 92.351562 59.822266 L 92.212891 59.517578 L 92.074219 59.214844 L 89.123047 59.214844 L 86.171875 59.214844 z M 56.509766 60.427734 L 56.935547 60.427734 L 57.359375 60.427734 L 57.359375 62.369141 L 57.359375 64.3125 L 56.880859 64.3125 L 56.402344 64.3125 L 56.214844 64.042969 L 56.025391 63.771484 L 56.025391 62.34375 L 56.025391 60.914062 L 56.267578 60.671875 L 56.509766 60.427734 z M 86.349609 61.763672 L 86.115234 61.888672 L 85.880859 62.013672 L 85.880859 62.367188 L 85.880859 62.720703 L 86.150391 62.910156 L 86.419922 63.097656 L 89.123047 63.097656 L 91.826172 63.097656 L 92.070312 62.855469 C 92.365662 62.560153 92.378248 62.279317 92.111328 61.984375 L 91.910156 61.763672 L 89.130859 61.763672 L 86.349609 61.763672 z M 77.275391 68.183594 L 77.027344 68.431641 L 76.777344 68.681641 L 76.777344 69.773438 L 76.777344 70.865234 L 76.220703 70.865234 L 75.662109 70.865234 L 75.246094 71.0625 C 75.017754 71.170853 74.711906 71.426518 74.566406 71.630859 L 74.302734 72.001953 L 74.251953 72.708984 L 74.201172 73.414062 L 73.064453 73.414062 L 71.929688 73.414062 L 71.748047 73.689453 L 71.568359 73.964844 L 71.640625 74.246094 L 71.714844 74.525391 L 72.009766 74.636719 C 72.171866 74.69835 72.737928 74.748047 73.267578 74.748047 L 74.230469 74.748047 L 74.230469 75.355469 L 74.230469 75.962891 L 73.289062 75.964844 C 72.771752 75.965754 72.221716 75.999426 72.066406 76.041016 L 71.783203 76.117188 L 71.667969 76.419922 L 71.552734 76.722656 L 71.742188 77.009766 L 71.929688 77.296875 L 73.080078 77.296875 L 74.230469 77.296875 L 74.230469 77.855469 L 74.230469 78.414062 L 74.427734 78.830078 L 74.625 79.248047 L 75.136719 79.546875 L 75.646484 79.845703 L 76.212891 79.845703 L 76.777344 79.845703 L 76.777344 80.992188 L 76.777344 82.138672 L 77.046875 82.326172 L 77.316406 82.515625 L 77.564453 82.441406 C 77.699993 82.400678 77.864841 82.316376 77.931641 82.253906 L 78.052734 82.140625 L 78.095703 80.994141 L 78.136719 79.845703 L 78.732422 79.845703 L 79.326172 79.845703 L 79.328125 80.787109 C 79.329025 81.304415 79.36465 81.854459 79.40625 82.009766 L 79.482422 82.292969 L 79.785156 82.408203 L 80.087891 82.523438 L 80.375 82.333984 L 80.662109 82.146484 L 80.662109 80.996094 L 80.662109 79.845703 L 81.220703 79.845703 L 81.779297 79.845703 L 82.193359 79.648438 C 82.421699 79.540085 82.727547 79.284419 82.873047 79.080078 L 83.138672 78.708984 L 83.189453 78.003906 L 83.240234 77.296875 L 84.375 77.296875 L 85.511719 77.296875 L 85.699219 77.009766 L 85.886719 76.722656 L 85.771484 76.419922 L 85.65625 76.117188 L 85.375 76.041016 C 85.21969 75.999426 84.669644 75.965755 84.152344 75.964844 L 83.210938 75.962891 L 83.210938 75.355469 L 83.210938 74.748047 L 84.152344 74.748047 C 84.669644 74.747137 85.21969 74.711512 85.375 74.669922 L 85.65625 74.59375 L 85.771484 74.291016 L 85.886719 73.988281 L 85.699219 73.701172 L 85.511719 73.414062 L 84.361328 73.414062 L 83.210938 73.414062 L 83.208984 72.837891 L 83.207031 72.261719 L 82.935547 71.789062 L 82.664062 71.314453 L 82.242188 71.089844 L 81.818359 70.865234 L 81.240234 70.865234 L 80.662109 70.865234 L 80.662109 69.714844 L 80.662109 68.564453 L 80.375 68.376953 L 80.087891 68.189453 L 79.785156 68.304688 L 79.482422 68.419922 L 79.40625 68.701172 C 79.36465 68.856479 79.329035 69.406521 79.328125 69.923828 L 79.326172 70.865234 L 78.732422 70.865234 L 78.136719 70.865234 L 78.09375 69.71875 L 78.052734 68.570312 L 77.931641 68.457031 C 77.864891 68.394557 77.689739 68.307962 77.542969 68.263672 L 77.275391 68.183594 z M 56.509766 68.195312 L 56.935547 68.195312 L 57.359375 68.195312 L 57.359375 70.136719 L 57.359375 72.078125 L 56.880859 72.078125 L 56.402344 72.078125 L 56.214844 71.808594 L 56.025391 71.539062 L 56.025391 70.109375 L 56.025391 68.681641 L 56.267578 68.4375 L 56.509766 68.195312 z M 100.08008 68.195312 L 100.50391 68.195312 L 100.92969 68.195312 L 101.17188 68.4375 L 101.41406 68.681641 L 101.41406 70.109375 L 101.41406 71.539062 L 101.22656 71.808594 L 101.03711 72.078125 L 100.55859 72.078125 L 100.08008 72.078125 L 100.08008 70.136719 L 100.08008 68.195312 z M 75.927734 72.078125 L 78.720703 72.078125 L 81.511719 72.078125 L 81.753906 72.322266 L 81.996094 72.564453 L 81.996094 75.355469 L 81.996094 78.146484 L 81.753906 78.390625 L 81.511719 78.632812 L 78.720703 78.632812 L 75.927734 78.632812 L 75.685547 78.390625 L 75.443359 78.146484 L 75.443359 75.355469 L 75.443359 72.564453 L 75.685547 72.322266 L 75.927734 72.078125 z M 56.402344 78.632812 L 56.880859 78.632812 L 57.359375 78.632812 L 57.359375 80.574219 L 57.359375 82.515625 L 56.935547 82.515625 L 56.509766 82.515625 L 56.267578 82.273438 L 56.025391 82.03125 L 56.025391 80.601562 L 56.025391 79.171875 L 56.214844 78.902344 L 56.402344 78.632812 z M 100.08008 78.632812 L 100.55859 78.632812 L 101.03711 78.632812 L 101.22656 78.902344 L 101.41406 79.171875 L 101.41406 80.601562 L 101.41406 82.03125 L 101.17188 82.273438 L 100.92969 82.515625 L 100.50391 82.515625 L 100.08008 82.515625 L 100.08008 80.574219 L 100.08008 78.632812 z M 82.251953 85.046875 L 81.814453 85.255859 C 81.573633 85.370132 81.228618 85.65504 81.048828 85.890625 L 80.722656 86.320312 L 80.679688 87.398438 L 80.636719 88.476562 L 80.849609 88.712891 C 81.122969 89.014998 81.447256 89.011725 81.753906 88.705078 L 81.996094 88.462891 L 81.996094 87.576172 L 81.996094 86.691406 L 82.142578 86.544922 L 82.289062 86.400391 L 83.894531 86.400391 L 85.501953 86.400391 L 85.691406 86.669922 L 85.880859 86.939453 L 85.880859 88.369141 L 85.880859 89.798828 L 85.638672 90.041016 L 85.394531 90.283203 L 83.841797 90.283203 L 82.289062 90.283203 L 82.142578 90.429688 C 81.952188 90.620008 81.955607 91.164819 82.148438 91.359375 L 82.300781 91.511719 L 84.121094 91.474609 L 85.941406 91.435547 L 86.320312 91.166016 C 86.529013 91.017145 86.788124 90.708806 86.896484 90.480469 L 87.09375 90.064453 L 87.09375 88.25 L 87.09375 86.435547 L 86.820312 86.035156 C 86.670123 85.814487 86.393278 85.518542 86.205078 85.378906 L 85.863281 85.125 L 84.058594 85.085938 L 82.251953 85.046875 z M 90.019531 85.046875 L 89.582031 85.255859 C 89.341211 85.370132 88.996196 85.654905 88.816406 85.890625 L 88.490234 86.320312 L 88.490234 88.292969 L 88.490234 90.265625 L 88.744141 90.607422 C 88.883771 90.795877 89.177768 91.074423 89.398438 91.224609 L 89.800781 91.496094 L 91.615234 91.496094 L 93.429688 91.496094 L 93.84375 91.300781 C 94.07209 91.192428 94.380427 90.931362 94.529297 90.722656 L 94.800781 90.34375 L 94.837891 88.402344 L 94.876953 86.458984 L 94.595703 86.046875 C 94.441233 85.819854 94.160846 85.518542 93.972656 85.378906 L 93.630859 85.125 L 91.824219 85.085938 L 90.019531 85.046875 z M 56.402344 86.400391 L 56.880859 86.400391 L 57.359375 86.400391 L 57.359375 88.341797 L 57.359375 90.283203 L 56.935547 90.283203 L 56.509766 90.283203 L 56.267578 90.041016 L 56.025391 89.798828 L 56.025391 88.369141 L 56.025391 86.939453 L 56.214844 86.669922 L 56.402344 86.400391 z M 90.054688 86.400391 L 91.662109 86.400391 L 93.269531 86.400391 L 93.458984 86.669922 L 93.648438 86.939453 L 93.648438 88.369141 L 93.648438 89.798828 L 93.404297 90.041016 L 93.162109 90.283203 L 91.732422 90.283203 L 90.302734 90.283203 L 90.033203 90.09375 L 89.763672 89.90625 L 89.763672 88.298828 L 89.763672 86.691406 L 89.910156 86.544922 L 90.054688 86.400391 z M 100.08008 86.400391 L 100.55859 86.400391 L 101.03711 86.400391 L 101.22656 86.669922 L 101.41406 86.939453 L 101.41406 88.369141 L 101.41406 89.798828 L 101.17188 90.041016 L 100.92969 90.283203 L 100.50391 90.283203 L 100.08008 90.283203 L 100.08008 88.341797 L 100.08008 86.400391 z M 63.792969 96.714844 L 65.734375 96.714844 L 67.675781 96.714844 L 67.675781 97.193359 L 67.675781 97.671875 L 67.40625 97.861328 L 67.136719 98.050781 L 65.707031 98.050781 L 64.277344 98.050781 L 64.035156 97.808594 L 63.792969 97.564453 L 63.792969 97.140625 L 63.792969 96.714844 z M 71.560547 96.714844 L 73.501953 96.714844 L 75.443359 96.714844 L 75.443359 97.193359 L 75.443359 97.671875 L 75.173828 97.861328 L 74.904297 98.050781 L 73.474609 98.050781 L 72.044922 98.050781 L 71.802734 97.808594 L 71.560547 97.564453 L 71.560547 97.140625 L 71.560547 96.714844 z M 81.996094 96.714844 L 83.939453 96.714844 L 85.880859 96.714844 L 85.880859 97.140625 L 85.880859 97.564453 L 85.636719 97.808594 L 85.394531 98.050781 L 83.964844 98.050781 L 82.537109 98.050781 L 82.265625 97.861328 L 81.996094 97.671875 L 81.996094 97.193359 L 81.996094 96.714844 z M 89.763672 96.714844 L 91.705078 96.714844 L 93.648438 96.714844 L 93.648438 97.140625 L 93.648438 97.564453 L 93.404297 97.808594 L 93.162109 98.050781 L 91.732422 98.050781 L 90.302734 98.050781 L 90.033203 97.861328 L 89.763672 97.671875 L 89.763672 97.193359 L 89.763672 96.714844 z "
     d="m 64.011719,51.460937 -0.410157,0.195313 c -0.225132,0.106831 -0.528921,0.360577 -0.669921,0.558594 l -0.257813,0.363281 -0.07031,0.726562 -0.07227,0.730469 a 0.0137054,0.0137054 0 0 1 -0.0098,0.01172 l -0.728515,0.199219 c -0.399258,0.109527 -0.998824,0.333048 -1.330078,0.496093 l -0.603516,0.296875 -0.728516,0.728516 -0.726562,0.726563 -0.332031,0.664062 c -0.181111,0.365142 -0.403908,0.96655 -0.496094,1.332031 l -0.167969,0.667969 a 0.0137054,0.0137054 0 0 1 -0.01172,0.0098 l -0.728515,0.07031 -0.72461,0.07227 -0.365234,0.257812 c -0.198012,0.141001 -0.451765,0.444792 -0.558594,0.669922 l -0.193359,0.41211 v 1.810546 1.810547 l 0.269531,0.398438 c 0.149024,0.218955 0.419214,0.508449 0.597656,0.640625 l 0.328125,0.240234 0.667969,0.05664 0.671875,0.05664 a 0.0137054,0.0137054 0 0 1 0.01172,0.01367 v 0.636719 0.638672 a 0.0137054,0.0137054 0 0 1 -0.01172,0.01367 l -0.705078,0.05078 -0.703125,0.05078 -0.367188,0.261719 c -0.201381,0.143397 -0.45963,0.44881 -0.566406,0.673828 l -0.193359,0.414063 v 1.810547 1.810546 l 0.269531,0.396485 c 0.149045,0.218986 0.419265,0.510436 0.597656,0.642578 l 0.328125,0.240234 0.667969,0.05664 0.671875,0.05469 a 0.0137054,0.0137054 0 0 1 0.01172,0.01367 v 1.91211 1.912109 a 0.0137054,0.0137054 0 0 1 -0.01172,0.01367 l -0.671875,0.05664 -0.667969,0.05469 -0.328125,0.242188 c -0.178442,0.132175 -0.448632,0.421669 -0.597656,0.640625 l -0.269531,0.396484 v 1.810547 1.810547 l 0.195312,0.416015 0.195313,0.41211 0.509765,0.296875 0.50586,0.298828 h 0.5625 0.564453 a 0.0137054,0.0137054 0 0 1 0.01367,0.01367 v 0.652343 0.652344 a 0.0137054,0.0137054 0 0 1 -0.01172,0.01367 l -0.671875,0.05469 -0.667969,0.05664 -0.328125,0.242188 c -0.178442,0.132176 -0.448632,0.421669 -0.597656,0.640625 l -0.269531,0.396484 V 88.25 90.060547 l 0.191406,0.408203 0.193359,0.408203 0.441407,0.273438 0.4375,0.271484 0.654297,0.06055 0.654296,0.0625 a 0.0137054,0.0137054 0 0 1 0.01172,0.0098 l 0.201172,0.726563 c 0.109455,0.39931 0.331125,1.000841 0.494141,1.332031 l 0.298828,0.601563 0.726562,0.728515 0.728516,0.728516 0.603516,0.298828 c 0.331216,0.163026 0.93078,0.384604 1.330078,0.494141 l 0.728515,0.201172 a 0.0137054,0.0137054 0 0 1 0.0098,0.01172 l 0.07227,0.726563 0.07031,0.724609 0.201172,0.28711 c 0.108827,0.155379 0.403941,0.410163 0.652344,0.560546 L 63.978516,99.25 h 1.828125 1.830078 l 0.396484,-0.271484 c 0.218956,-0.14902 0.508444,-0.419212 0.640625,-0.597657 l 0.242188,-0.326172 0.05469,-0.667968 0.05664,-0.673828 a 0.0137054,0.0137054 0 0 1 0.01367,-0.01172 h 0.652343 0.652344 a 0.0137054,0.0137054 0 0 1 0.01367,0.01367 v 0.558593 0.554688 l 0.195312,0.414062 0.197266,0.414063 0.507813,0.296875 0.507812,0.296875 h 1.816406 1.81836 l 0.398437,-0.271484 c 0.218957,-0.14902 0.508454,-0.419213 0.640625,-0.597657 l 0.242188,-0.326172 0.05469,-0.667968 0.05664,-0.673828 a 0.0137054,0.0137054 0 0 1 0.01367,-0.01172 h 1.912109 1.910156 a 0.0137054,0.0137054 0 0 1 0.01367,0.01172 l 0.05664,0.673828 0.05469,0.667968 0.242188,0.326172 c 0.132181,0.178445 0.421669,0.448637 0.640625,0.597657 L 82.037109,99.25 h 1.810547 1.810547 l 0.412109,-0.195313 c 0.225069,-0.106805 0.530449,-0.363103 0.673829,-0.564453 l 0.263671,-0.367187 0.05078,-0.703125 0.05078,-0.707031 a 0.0137054,0.0137054 0 0 1 0.01367,-0.01172 h 0.638672 0.636718 a 0.0137054,0.0137054 0 0 1 0.01367,0.01172 l 0.05664,0.673828 0.05469,0.667968 0.242188,0.326172 c 0.132181,0.178445 0.421669,0.448637 0.640625,0.597657 L 89.804687,99.25 h 1.810547 1.810547 l 0.41211,-0.195313 c 0.225132,-0.106831 0.528921,-0.360576 0.669921,-0.558593 l 0.257813,-0.363282 0.07227,-0.720703 0.07031,-0.726562 a 0.0137054,0.0137054 0 0 1 0.0098,-0.01172 l 0.910156,-0.261719 0.908203,-0.261718 0.697266,-0.464844 c 1.211382,-0.804757 1.984387,-1.902037 2.396484,-3.404297 l 0.199222,-0.726563 a 0.0137054,0.0137054 0 0 1 0.0117,-0.0098 l 0.73046,-0.07227 0.72657,-0.07031 0.36328,-0.259766 c 0.19807,-0.141034 0.45177,-0.442865 0.55859,-0.667969 l 0.19531,-0.414062 V 88.25 86.439453 l -0.27148,-0.396484 c -0.14902,-0.218956 -0.41921,-0.508449 -0.59766,-0.640625 l -0.32812,-0.242188 -0.66797,-0.05664 -0.67187,-0.05469 a 0.0137054,0.0137054 0 0 1 -0.0117,-0.01367 v -0.638672 -0.636718 a 0.0137054,0.0137054 0 0 1 0.0117,-0.01367 l 0.70507,-0.05273 0.70508,-0.05078 0.36719,-0.261719 c 0.20135,-0.143372 0.45764,-0.448752 0.56445,-0.673828 l 0.19531,-0.414062 v -1.810547 -1.810547 l -0.27148,-0.396484 c -0.14902,-0.218956 -0.41921,-0.50845 -0.59766,-0.640625 l -0.32812,-0.242188 -0.66797,-0.05469 -0.67187,-0.05664 a 0.0137054,0.0137054 0 0 1 -0.0117,-0.01367 v -1.912109 -1.91211 a 0.0137054,0.0137054 0 0 1 0.0117,-0.01367 L 100.75,73.375 l 0.66797,-0.05664 0.32812,-0.240234 c 0.17839,-0.132138 0.44861,-0.423592 0.59766,-0.642578 l 0.27148,-0.396485 -0.002,-1.828125 -0.002,-1.830078 -0.26953,-0.470703 -0.26953,-0.46875 -0.41797,-0.222656 -0.42188,-0.222656 h -0.57422 -0.57812 a 0.0137054,0.0137054 0 0 1 -0.0137,-0.01367 v -0.667969 -0.667969 a 0.0137054,0.0137054 0 0 1 0.0137,-0.01367 h 0.48242 0.47461 l 0.17773,-0.269531 0.17579,-0.269531 -0.0703,-0.273438 -0.0723,-0.27539 -0.28711,-0.107422 c -0.15974,-0.06074 -0.4262,-0.111328 -0.58594,-0.111328 h -0.29492 a 0.0137054,0.0137054 0 0 1 -0.0137,-0.01367 v -1.943359 -1.941407 a 0.0137054,0.0137054 0 0 1 0.0137,-0.01367 h 0.42383 0.42578 a 0.0137054,0.0137054 0 0 1 0.01,0.0039 l 0.24219,0.24414 0.24219,0.242188 a 0.0137054,0.0137054 0 0 1 0.004,0.0098 v 0.90625 0.900391 l 0.29883,0.195313 0.29492,0.195312 0.29688,-0.195312 0.29687,-0.195313 v -1.025391 -1.029296 l -0.23437,-0.460938 c -0.12833,-0.251559 -0.38827,-0.558457 -0.57031,-0.677734 l -0.33399,-0.220703 -0.71679,-0.06836 -0.71875,-0.07031 a 0.0137054,0.0137054 0 0 1 -0.0117,-0.0098 l -0.199222,-0.728516 c -0.412097,-1.502258 -1.185102,-2.599539 -2.396484,-3.404296 l -0.697266,-0.464844 -0.908203,-0.259766 -0.910156,-0.263672 a 0.0137054,0.0137054 0 0 1 -0.0098,-0.01172 l -0.06055,-0.650391 -0.06055,-0.648438 -0.240234,-0.408203 -0.242188,-0.408203 -0.417968,-0.224609 -0.421875,-0.22461 h -1.830078 -1.830079 l -0.398437,0.271485 c -0.218956,0.14902 -0.508444,0.41921 -0.640625,0.597656 l -0.240234,0.326172 -0.05664,0.669922 -0.05664,0.671875 a 0.0137054,0.0137054 0 0 1 -0.01367,0.01172 H 87.746094 87.09375 a 0.0137054,0.0137054 0 0 1 -0.01367,-0.01367 l -0.002,-0.576172 -0.002,-0.572266 -0.269531,-0.470703 -0.267579,-0.470703 -0.419921,-0.222656 -0.419922,-0.222657 h -1.832032 -1.830078 l -0.398437,0.271485 c -0.218956,0.14902 -0.508444,0.41921 -0.640625,0.597656 l -0.240235,0.326172 -0.05664,0.669922 -0.05469,0.671875 a 0.0137054,0.0137054 0 0 1 -0.01367,0.01172 h -1.912109 -1.912109 a 0.0137054,0.0137054 0 0 1 -0.01367,-0.01172 l -0.05664,-0.671875 -0.05469,-0.669922 -0.242188,-0.326172 C 76.309225,52.151632 76.019738,51.881442 75.800781,51.732422 L 75.404297,51.460937 H 73.59375 71.783203 l -0.414062,0.195313 c -0.225069,0.106805 -0.530449,0.363105 -0.673829,0.564453 l -0.261718,0.367188 -0.05273,0.705078 -0.05078,0.705078 a 0.0137054,0.0137054 0 0 1 -0.01367,0.01172 h -0.636719 -0.638671 a 0.0137054,0.0137054 0 0 1 -0.01367,-0.01172 l -0.05664,-0.671875 -0.05469,-0.669922 -0.242188,-0.326172 c -0.132181,-0.178446 -0.421669,-0.448636 -0.640625,-0.597656 l -0.396484,-0.271485 h -1.810547 -1.8125 z m 0.265625,1.185547 h 1.429687 1.429688 a 0.0137054,0.0137054 0 0 1 0.0078,0.002 l 0.269531,0.189454 0.269532,0.189453 a 0.0137054,0.0137054 0 0 1 0.0059,0.01172 v 0.478516 0.478516 a 0.0137054,0.0137054 0 0 1 -0.01367,0.01367 h -1.941406 -1.941406 a 0.0137054,0.0137054 0 0 1 -0.01367,-0.01367 v -0.425782 -0.423828 a 0.0137054,0.0137054 0 0 1 0.0039,-0.0098 l 0.242188,-0.242188 0.242187,-0.24414 a 0.0137054,0.0137054 0 0 1 0.0098,-0.0039 z m 7.767578,0 h 1.429687 1.429688 a 0.0137054,0.0137054 0 0 1 0.0078,0.002 l 0.269532,0.189454 0.269531,0.189453 a 0.0137054,0.0137054 0 0 1 0.0059,0.01172 v 0.478516 0.478516 a 0.0137054,0.0137054 0 0 1 -0.01367,0.01367 h -1.941406 -1.941406 a 0.0137054,0.0137054 0 0 1 -0.01367,-0.01367 v -0.425782 -0.423828 a 0.0137054,0.0137054 0 0 1 0.0039,-0.0098 l 0.242188,-0.242188 0.242187,-0.24414 a 0.0137054,0.0137054 0 0 1 0.0098,-0.0039 z m 10.492187,0 h 1.427735 1.429687 a 0.0137054,0.0137054 0 0 1 0.0098,0.0039 l 0.242187,0.24414 0.244141,0.242188 a 0.0137054,0.0137054 0 0 1 0.0039,0.0098 v 0.423828 0.425782 a 0.0137054,0.0137054 0 0 1 -0.01367,0.01367 h -1.941406 -1.943359 a 0.0137054,0.0137054 0 0 1 -0.01367,-0.01367 v -0.478516 -0.478516 a 0.0137054,0.0137054 0 0 1 0.0059,-0.01172 l 0.269531,-0.189453 0.271485,-0.189454 a 0.0137054,0.0137054 0 0 1 0.0078,-0.002 z m 7.765625,0 h 1.429688 1.429687 a 0.0137054,0.0137054 0 0 1 0.0098,0.0039 l 0.242187,0.24414 0.244141,0.242188 a 0.0137054,0.0137054 0 0 1 0.0039,0.0098 v 0.423828 0.425782 a 0.0137054,0.0137054 0 0 1 -0.01367,0.01367 H 91.705078 89.763672 A 0.0137054,0.0137054 0 0 1 89.75,53.996094 v -0.478516 -0.478516 a 0.0137054,0.0137054 0 0 1 0.0059,-0.01172 l 0.269532,-0.189453 0.269531,-0.189454 a 0.0137054,0.0137054 0 0 1 0.0078,-0.002 z m -28.390625,2.732422 h 16.808594 16.808594 a 0.0137054,0.0137054 0 0 1 0.0059,0.002 l 0.666016,0.341797 c 0.888958,0.455138 1.640423,1.197013 2.111328,2.089844 l 0.382812,0.728516 a 0.0137054,0.0137054 0 0 1 0.002,0.0059 v 16.808594 16.808593 a 0.0137054,0.0137054 0 0 1 -0.002,0.0059 l -0.382812,0.728515 -0.384766,0.728516 a 0.0137054,0.0137054 0 0 1 -0.002,0.0039 l -0.52539,0.503907 c -0.290976,0.278391 -0.830307,0.660263 -1.199219,0.851562 l -0.666016,0.345703 a 0.0137054,0.0137054 0 0 1 -0.0059,0.002 L 78.902344,95.353516 62.275391,95.375 a 0.0137054,0.0137054 0 0 1 -0.0039,0 L 61.96875,95.28125 c -1.198371,-0.370239 -2.299365,-1.303793 -2.882813,-2.443359 l -0.341796,-0.667969 a 0.0137054,0.0137054 0 0 1 -0.002,-0.0059 V 75.355469 58.546875 a 0.0137054,0.0137054 0 0 1 0.002,-0.0059 l 0.347656,-0.685547 0.347656,-0.685547 a 0.0137054,0.0137054 0 0 1 0.002,-0.0039 l 0.5625,-0.550782 c 0.311058,-0.304309 0.865176,-0.705588 1.234375,-0.894531 l 0.667969,-0.339844 a 0.0137054,0.0137054 0 0 1 0.0059,-0.002 z m 6.585938,1.158203 -3.046875,0.04297 -3.050781,0.04297 -0.605469,0.318359 c -0.715543,0.377889 -1.136798,0.806112 -1.527344,1.550781 l -0.285156,0.544922 v 16.31836 16.320312 l 0.285156,0.542969 c 0.519572,0.990692 1.314209,1.617323 2.3125,1.822266 0.01119,0.0023 0.05617,0.005 0.125,0.0078 0.06883,0.0028 0.164643,0.0071 0.285156,0.0098 0.241027,0.0054 0.581108,0.01092 1.011719,0.01563 0.861221,0.0094 2.079573,0.01729 3.564453,0.02344 2.969761,0.01229 7.007749,0.01652 11.396485,0.01172 l 15.955078,-0.01758 0.634765,-0.285156 0.632813,-0.28711 0.408203,-0.451172 c 0.222847,-0.24667 0.507473,-0.718017 0.632812,-1.042968 l 0.230469,-0.591797 V 75.234375 59.037109 L 97.171875,58.492187 C 96.781908,57.74861 96.360903,57.320099 95.644531,56.939453 l -0.605469,-0.320312 -12.05664,-0.0332 -12.058594,-0.03516 -0.283203,0.1875 -0.28125,0.183594 v 0.345703 0.347656 l 0.146484,0.09375 0.148438,0.0957 12.152344,0.06055 12.158203,0.06055 a 0.0137054,0.0137054 0 0 1 0.0078,0.002 l 0.335938,0.251953 c 0.186002,0.138887 0.449006,0.401866 0.58789,0.587891 l 0.25,0.335938 a 0.0137054,0.0137054 0 0 1 0.002,0.0078 v 16.244141 16.24414 a 0.0137054,0.0137054 0 0 1 -0.002,0.0078 l -0.25,0.335937 c -0.138866,0.185987 -0.401817,0.45092 -0.58789,0.589844 l -0.335938,0.25 a 0.0137054,0.0137054 0 0 1 -0.0078,0.002 H 78.720703 62.474609 a 0.0137054,0.0137054 0 0 1 -0.0078,-0.002 l -0.333985,-0.25 c -0.186041,-0.138901 -0.450957,-0.404057 -0.589843,-0.589844 l -0.25,-0.333984 a 0.0137054,0.0137054 0 0 1 -0.002,-0.0078 L 61.25,90.275391 61.208984,88.949219 a 0.0137054,0.0137054 0 0 1 0.01367,-0.01367 h 4.978516 4.970703 l 0.1875,-0.1875 c 0.100943,-0.100925 0.1875,-0.315422 0.1875,-0.46875 v -0.28125 l -0.265625,-0.183594 -0.265625,-0.1875 h -4.882813 -4.888671 a 0.0137054,0.0137054 0 0 1 -0.01367,-0.01367 v -3.226562 -3.226563 a 0.0137054,0.0137054 0 0 1 0.01367,-0.01367 l 1.326171,0.04102 1.326172,0.04102 a 0.0137054,0.0137054 0 0 1 0.0078,0.002 l 0.335937,0.25 c 0.185662,0.138798 0.439231,0.390203 0.566407,0.560547 l 0.228515,0.30664 a 0.0137054,0.0137054 0 0 1 0.002,0.0059 l 0.109375,0.867187 0.109375,0.865234 0.234375,0.462891 c 0.282768,0.554275 1.085784,1.304806 1.689453,1.578125 l 0.439454,0.197266 4.267578,0.03906 4.265625,0.03906 0.248047,-0.13086 c 0.131389,-0.07032 0.275504,-0.26682 0.316406,-0.429687 l 0.07422,-0.296875 -0.208985,-0.232422 -0.210937,-0.234375 h -4.166016 -4.171875 a 0.0137054,0.0137054 0 0 1 -0.0059,-0.002 l -0.390625,-0.166016 c -0.218043,-0.09329 -0.546846,-0.331557 -0.736328,-0.533203 l -0.341797,-0.363281 a 0.0137054,0.0137054 0 0 1 -0.0039,-0.0078 l -0.128906,-0.896484 c -0.214349,-1.474793 -0.743934,-2.291513 -1.849609,-2.855469 l -0.605469,-0.30664 -1.361328,-0.06055 -1.365234,-0.06055 a 0.0137054,0.0137054 0 0 1 -0.01367,-0.01367 v -0.589844 -0.589844 a 0.0137054,0.0137054 0 0 1 0.01367,-0.01367 h 2.236328 2.236328 l 0.291015,-0.113282 a 0.0137054,0.0137054 0 0 1 0.002,0 l 0.287109,-0.107422 0.07031,-0.273437 0.07227,-0.273438 -0.177734,-0.269531 -0.177735,-0.271484 h -2.416015 -2.423828 a 0.0137054,0.0137054 0 0 1 -0.01367,-0.01367 v -0.666016 -0.667968 a 0.0137054,0.0137054 0 0 1 0.01367,-0.01367 h 2.423828 2.416015 l 0.195313,-0.298828 0.195312,-0.294922 -0.195312,-0.294922 -0.195313,-0.298828 h -2.416015 -2.423828 a 0.0137054,0.0137054 0 0 1 -0.01367,-0.01367 v -0.666016 -0.667969 a 0.0137054,0.0137054 0 0 1 0.01367,-0.01367 h 3.662109 3.654297 l 0.21875,-0.197266 c 0.142433,-0.128905 0.210649,-0.272199 0.207031,-0.419922 -0.0036,-0.147723 -0.07905,-0.301706 -0.228516,-0.451172 l -0.238281,-0.240234 h -3.634765 -3.640625 a 0.0137054,0.0137054 0 0 1 -0.01367,-0.01367 v -0.589844 -0.591797 a 0.0137054,0.0137054 0 0 1 0.01367,-0.01367 l 1.304687,-0.05469 1.300781,-0.05664 0.603516,-0.267578 c 0.580618,-0.258527 0.999181,-0.574423 1.306641,-1.019531 0.307459,-0.445108 0.504083,-1.020615 0.640625,-1.802734 l 0.166015,-0.955079 a 0.0137054,0.0137054 0 0 1 0.002,-0.0059 l 0.214844,-0.289062 c 0.120329,-0.162949 0.415558,-0.405831 0.660156,-0.544922 l 0.441407,-0.251953 a 0.0137054,0.0137054 0 0 1 0.0059,-0.002 H 70.875 73.851562 l 0.185547,-0.28125 0.183594,-0.28125 -0.117187,-0.30664 -0.115235,-0.306641 -0.412109,-0.07617 c -0.05541,-0.01039 -0.190083,-0.02038 -0.38086,-0.02734 -0.190776,-0.007 -0.439369,-0.01087 -0.728515,-0.01367 -0.578292,-0.0056 -1.318213,-0.0031 -2.080078,0.0098 l -2.767578,0.04687 -0.439454,0.19336 c -0.599512,0.265669 -1.40508,1.014844 -1.689453,1.572265 l -0.234375,0.464844 -0.109375,0.865234 -0.109375,0.867188 a 0.0137054,0.0137054 0 0 1 -0.002,0.0059 l -0.228515,0.304688 c -0.127185,0.170342 -0.380744,0.421748 -0.566407,0.560547 l -0.335937,0.25 a 0.0137054,0.0137054 0 0 1 -0.0078,0.002 l -1.326172,0.04297 -1.326171,0.04102 a 0.0137054,0.0137054 0 0 1 -0.01367,-0.01367 v -3.228515 -3.226563 a 0.0137054,0.0137054 0 0 1 0.01367,-0.01367 h 2.236328 2.236328 l 0.292969,-0.111328 0.287109,-0.107422 0.07031,-0.27539 0.07031,-0.273438 -0.175781,-0.269531 -0.177735,-0.269531 h -2.425781 -2.435547 a 0.0137054,0.0137054 0 0 1 -0.01367,-0.01367 L 61.25,60.4375 l 0.04102,-1.328125 a 0.0137054,0.0137054 0 0 1 0.002,-0.0078 l 0.25,-0.333984 c 0.138927,-0.185826 0.404029,-0.449032 0.589843,-0.587891 l 0.333985,-0.251953 a 0.0137054,0.0137054 0 0 1 0.0078,-0.002 l 3.052735,-0.03516 3.046875,-0.03711 0.210937,-0.191407 c 0.140721,-0.127344 0.207245,-0.269856 0.201172,-0.417968 -0.0061,-0.148113 -0.0849,-0.303651 -0.238281,-0.457032 z m 17.679687,2.691407 -0.142578,0.140625 c -0.03715,0.03713 -0.0739,0.108681 -0.09961,0.191406 -0.02571,0.08272 -0.04102,0.17664 -0.04102,0.261719 0,0.08508 0.0153,0.17949 0.04102,0.261718 0.02571,0.08223 0.06244,0.152284 0.09961,0.189453 l 0.142578,0.140625 h 2.945313 2.941406 l 0.136719,-0.294921 0.134765,-0.296875 -0.134765,-0.298829 -0.136719,-0.294921 h -2.941406 z m -29.667968,1.185546 h 0.425781 0.423828 a 0.0137054,0.0137054 0 0 1 0.01367,0.01367 v 1.941407 1.943359 a 0.0137054,0.0137054 0 0 1 -0.01367,0.01367 h -0.478516 -0.478515 a 0.0137054,0.0137054 0 0 1 -0.01172,-0.0059 l -0.1875,-0.269531 -0.189453,-0.271484 a 0.0137054,0.0137054 0 0 1 -0.002,-0.0078 V 62.34375 60.914062 a 0.0137054,0.0137054 0 0 1 0.0039,-0.0098 L 56.257812,60.662109 56.5,60.417969 a 0.0137054,0.0137054 0 0 1 0.0098,-0.0039 z m 29.839843,1.363282 -0.228515,0.123047 -0.226563,0.121093 v 0.345703 0.345704 l 0.263672,0.185546 0.265625,0.185547 h 2.699219 2.697265 l 0.240235,-0.238281 c 0.146208,-0.146191 0.220069,-0.286235 0.226562,-0.425781 0.0065,-0.139546 -0.05361,-0.279994 -0.185547,-0.425781 l -0.197265,-0.216797 h -2.773438 -2.779297 z m -29.839843,6.404297 h 0.425781 0.423828 a 0.0137054,0.0137054 0 0 1 0.01367,0.01367 v 1.941407 1.941406 a 0.0137054,0.0137054 0 0 1 -0.01367,0.01367 h -0.478516 -0.478515 a 0.0137054,0.0137054 0 0 1 -0.01172,-0.0059 l -0.1875,-0.269531 -0.189453,-0.269531 a 0.0137054,0.0137054 0 0 1 -0.002,-0.0078 v -1.429687 -1.427734 a 0.0137054,0.0137054 0 0 1 0.0039,-0.0098 L 56.257812,68.427734 56.5,68.185547 a 0.0137054,0.0137054 0 0 1 0.0098,-0.0039 z m 43.570314,0 h 0.42383 0.42578 a 0.0137054,0.0137054 0 0 1 0.01,0.0039 l 0.24219,0.242187 0.24219,0.244141 a 0.0137054,0.0137054 0 0 1 0.004,0.0098 v 1.427734 1.429687 a 0.0137054,0.0137054 0 0 1 -0.002,0.0078 l -0.1875,0.269531 -0.18945,0.269531 a 0.0137054,0.0137054 0 0 1 -0.0117,0.0059 h -0.47852 -0.47851 a 0.0137054,0.0137054 0 0 1 -0.0137,-0.01367 v -1.941406 -1.941407 a 0.0137054,0.0137054 0 0 1 0.0137,-0.01367 z m -22.800783,0.01758 -0.242188,0.242187 -0.246093,0.246094 v 1.085937 1.091797 a 0.0137054,0.0137054 0 0 1 -0.01367,0.01367 h -0.556641 -0.554687 l -0.414063,0.195313 c -0.225079,0.106805 -0.530459,0.363104 -0.673828,0.564453 l -0.261719,0.367187 -0.05078,0.705078 -0.05078,0.705079 a 0.0137054,0.0137054 0 0 1 -0.01367,0.01172 H 73.064453 71.9375 l -0.177734,0.269532 -0.175782,0.269531 0.07031,0.27539 0.07227,0.273438 0.28711,0.107422 c 0.07724,0.02937 0.260763,0.05804 0.488281,0.07813 0.227518,0.02009 0.501229,0.0332 0.765625,0.0332 h 0.962891 a 0.0137054,0.0137054 0 0 1 0.01367,0.01367 v 0.607422 0.607422 a 0.0137054,0.0137054 0 0 1 -0.01367,0.01367 l -0.941407,0.002 c -0.258365,4.54e-4 -0.52483,0.0097 -0.746093,0.02344 -0.221263,0.01371 -0.398014,0.03275 -0.472657,0.05273 l -0.277343,0.07422 -0.111328,0.294922 -0.113282,0.296875 0.185547,0.28125 0.183594,0.28125 h 1.142578 1.150391 a 0.0137054,0.0137054 0 0 1 0.01367,0.01367 v 0.558594 0.554687 l 0.195312,0.414063 0.195313,0.414062 0.509765,0.296875 0.50586,0.296875 h 0.5625 0.564453 a 0.0137054,0.0137054 0 0 1 0.01367,0.01367 v 1.146484 1.138672 l 0.263671,0.183594 0.263672,0.185547 0.242188,-0.07227 c 0.133481,-0.04011 0.298251,-0.124605 0.361328,-0.183593 l 0.117187,-0.109375 0.04297,-1.140625 0.04102,-1.148438 a 0.0137054,0.0137054 0 0 1 0.01367,-0.01367 h 0.595703 0.59375 a 0.0137054,0.0137054 0 0 1 0.01367,0.01367 l 0.002,0.941406 c 4.49e-4,0.258347 0.0092,0.524834 0.02344,0.746094 0.0142,0.22126 0.03468,0.397964 0.05469,0.472656 l 0.07422,0.277344 0.294921,0.111328 0.296875,0.113281 0.28125,-0.185546 0.28125,-0.183594 v -1.142578 -1.150391 a 0.0137054,0.0137054 0 0 1 0.01367,-0.01367 h 0.558594 0.554688 L 82.1875,79.636719 c 0.225079,-0.106806 0.530459,-0.363105 0.673828,-0.564453 l 0.263672,-0.367188 0.05078,-0.703125 0.05078,-0.707031 a 0.0137054,0.0137054 0 0 1 0.01367,-0.01172 H 84.375 85.503906 l 0.183594,-0.28125 0.183594,-0.28125 -0.113282,-0.296875 -0.111328,-0.294922 -0.27539,-0.07422 c -0.07464,-0.01999 -0.251392,-0.03902 -0.472657,-0.05273 -0.221264,-0.01371 -0.487732,-0.02298 -0.746093,-0.02344 l -0.941407,-0.002 a 0.0137054,0.0137054 0 0 1 -0.01367,-0.01367 v -0.607422 -0.607422 a 0.0137054,0.0137054 0 0 1 0.01367,-0.01367 h 0.941407 c 0.258343,-4.54e-4 0.524833,-0.0092 0.746093,-0.02344 0.221261,-0.0142 0.397962,-0.03468 0.472657,-0.05469 l 0.27539,-0.07422 0.111328,-0.294922 0.113282,-0.296875 -0.183594,-0.28125 -0.183594,-0.28125 h -1.142578 -1.150391 a 0.0137054,0.0137054 0 0 1 -0.01367,-0.01367 l -0.002,-0.576171 -0.002,-0.572266 -0.269531,-0.470703 -0.269531,-0.470703 -0.417969,-0.222657 -0.421875,-0.222656 h -0.574219 -0.578125 a 0.0137054,0.0137054 0 0 1 -0.01367,-0.01367 v -1.15039 -1.142578 l -0.28125,-0.183594 -0.28125,-0.183594 -0.296875,0.113281 -0.294921,0.111328 -0.07422,0.275391 c -0.02001,0.07469 -0.04049,0.251397 -0.05469,0.472656 -0.0142,0.22126 -0.02298,0.487747 -0.02344,0.746094 l -0.002,0.941406 a 0.0137054,0.0137054 0 0 1 -0.01367,0.01367 h -0.59375 -0.595703 a 0.0137054,0.0137054 0 0 1 -0.01367,-0.01367 l -0.04297,-1.146484 -0.04102,-1.142578 -0.117187,-0.109375 c -0.06263,-0.05862 -0.237886,-0.145719 -0.382813,-0.189453 z m -1.351563,3.865234 h 2.792969 2.791016 a 0.0137054,0.0137054 0 0 1 0.0098,0.0039 l 0.242188,0.244141 0.242187,0.242187 a 0.0137054,0.0137054 0 0 1 0.0039,0.0098 v 2.791016 2.791015 a 0.0137054,0.0137054 0 0 1 -0.0039,0.0098 l -0.242187,0.244141 -0.242188,0.242187 a 0.0137054,0.0137054 0 0 1 -0.0098,0.0039 h -2.791016 -2.792969 a 0.0137054,0.0137054 0 0 1 -0.0098,-0.0039 L 75.675781,78.400391 75.433594,78.15625 a 0.0137054,0.0137054 0 0 1 -0.0039,-0.0098 v -2.791015 -2.791016 a 0.0137054,0.0137054 0 0 1 0.0039,-0.0098 l 0.242187,-0.242187 0.242188,-0.244141 a 0.0137054,0.0137054 0 0 1 0.0098,-0.0039 z m -19.52539,6.554688 h 0.478515 0.478516 a 0.0137054,0.0137054 0 0 1 0.01367,0.01367 v 1.941407 1.941406 a 0.0137054,0.0137054 0 0 1 -0.01367,0.01367 H 56.935547 56.509766 A 0.0137054,0.0137054 0 0 1 56.5,82.525391 l -0.242188,-0.242188 -0.242187,-0.242187 a 0.0137054,0.0137054 0 0 1 -0.0039,-0.0098 v -1.429688 -1.429687 a 0.0137054,0.0137054 0 0 1 0.002,-0.0078 l 0.189453,-0.269531 0.1875,-0.269531 a 0.0137054,0.0137054 0 0 1 0.01172,-0.0059 z m 43.677736,0 h 0.47851 0.47852 a 0.0137054,0.0137054 0 0 1 0.0117,0.0059 l 0.18945,0.269531 0.1875,0.269531 a 0.0137054,0.0137054 0 0 1 0.002,0.0078 v 1.429687 1.429688 a 0.0137054,0.0137054 0 0 1 -0.004,0.0098 l -0.24219,0.242187 -0.24219,0.242188 a 0.0137054,0.0137054 0 0 1 -0.01,0.0039 h -0.42578 -0.42383 a 0.0137054,0.0137054 0 0 1 -0.0137,-0.01367 v -1.941406 -1.941407 a 0.0137054,0.0137054 0 0 1 0.0137,-0.01367 z m -17.828127,6.441406 -0.431641,0.207031 c -0.237429,0.112664 -0.581872,0.39776 -0.759765,0.630859 l -0.324219,0.425782 -0.04297,1.074218 -0.04297,1.072266 0.208984,0.232422 c 0.134854,0.149036 0.280639,0.222048 0.429687,0.220703 0.149049,-0.0013 0.303444,-0.07688 0.455079,-0.228516 l 0.238281,-0.238281 v -0.880859 -0.884766 a 0.0137054,0.0137054 0 0 1 0.0039,-0.0098 l 0.146484,-0.146485 0.146485,-0.144531 a 0.0137054,0.0137054 0 0 1 0.0098,-0.0039 h 1.605469 1.607422 a 0.0137054,0.0137054 0 0 1 0.01172,0.0059 l 0.189453,0.269531 0.189453,0.269532 a 0.0137054,0.0137054 0 0 1 0.002,0.0078 v 1.429688 1.429687 a 0.0137054,0.0137054 0 0 1 -0.0039,0.0098 l -0.242188,0.242187 -0.24414,0.242188 a 0.0137054,0.0137054 0 0 1 -0.0098,0.0039 h -1.552734 -1.546875 l -0.142578,0.142578 c -0.09054,0.09051 -0.137864,0.271187 -0.136719,0.453125 0.0011,0.181938 0.05064,0.364267 0.142578,0.457031 l 0.148438,0.148438 1.814453,-0.03711 1.816406,-0.03906 0.375,-0.267578 c 0.205784,-0.14679 0.465485,-0.454678 0.572266,-0.679688 l 0.195312,-0.414062 V 88.25 86.439453 l -0.271484,-0.396484 c -0.148988,-0.218905 -0.425405,-0.514397 -0.611328,-0.652344 l -0.337891,-0.251953 -1.800781,-0.03906 -1.804688,-0.03906 z m 7.767578,0 -0.43164,0.207031 c -0.237434,0.112666 -0.581875,0.39763 -0.759766,0.630859 l -0.324219,0.425782 v 1.96875 1.96875 l 0.251953,0.33789 c 0.137998,0.186252 0.431556,0.464345 0.650391,0.613282 l 0.398437,0.269531 h 1.810547 1.810547 l 0.41211,-0.19336 c 0.224954,-0.106746 0.532875,-0.368397 0.679687,-0.574218 l 0.269531,-0.375 0.03711,-1.9375 0.03906,-1.939453 -0.279297,-0.408204 c -0.153303,-0.225306 -0.433295,-0.526166 -0.61914,-0.664062 l -0.337891,-0.251953 -1.802734,-0.03906 -1.802735,-0.03906 z m -33.617187,1.326172 h 0.478515 0.478516 a 0.0137054,0.0137054 0 0 1 0.01367,0.01367 v 1.941406 1.941406 a 0.0137054,0.0137054 0 0 1 -0.01367,0.01367 H 56.935547 56.509766 A 0.0137054,0.0137054 0 0 1 56.5,90.292969 l -0.242188,-0.242188 -0.242187,-0.242187 a 0.0137054,0.0137054 0 0 1 -0.0039,-0.0098 v -1.429687 -1.429688 a 0.0137054,0.0137054 0 0 1 0.002,-0.0078 l 0.189453,-0.269532 0.1875,-0.269531 a 0.0137054,0.0137054 0 0 1 0.01172,-0.0059 z m 33.652343,0 h 1.607422 1.607422 a 0.0137054,0.0137054 0 0 1 0.01172,0.0059 l 0.189453,0.269531 0.189453,0.269532 a 0.0137054,0.0137054 0 0 1 0.002,0.0078 v 1.429688 1.429687 a 0.0137054,0.0137054 0 0 1 -0.0039,0.0098 l -0.244141,0.242187 -0.242187,0.242188 a 0.0137054,0.0137054 0 0 1 -0.0098,0.0039 h -1.429687 -1.429688 a 0.0137054,0.0137054 0 0 1 -0.0078,-0.002 l -0.269531,-0.189453 -0.269532,-0.1875 A 0.0137054,0.0137054 0 0 1 89.75,89.90625 v -1.607422 -1.607422 a 0.0137054,0.0137054 0 0 1 0.0039,-0.0098 l 0.146485,-0.146485 0.144531,-0.144531 a 0.0137054,0.0137054 0 0 1 0.0098,-0.0039 z m 10.025393,0 h 0.47851 0.47852 a 0.0137054,0.0137054 0 0 1 0.0117,0.0059 l 0.18945,0.269531 0.1875,0.269532 a 0.0137054,0.0137054 0 0 1 0.002,0.0078 v 1.429688 1.429687 a 0.0137054,0.0137054 0 0 1 -0.004,0.0098 l -0.24219,0.242187 -0.24219,0.242188 a 0.0137054,0.0137054 0 0 1 -0.01,0.0039 h -0.42578 -0.42383 a 0.0137054,0.0137054 0 0 1 -0.0137,-0.01367 v -1.941406 -1.941406 a 0.0137054,0.0137054 0 0 1 0.0137,-0.01367 z M 63.792969,96.701172 h 1.941406 1.941406 a 0.0137054,0.0137054 0 0 1 0.01367,0.01367 v 0.478515 0.478516 a 0.0137054,0.0137054 0 0 1 -0.0059,0.01172 l -0.269532,0.189453 -0.269531,0.189453 a 0.0137054,0.0137054 0 0 1 -0.0078,0.002 h -1.429688 -1.429687 a 0.0137054,0.0137054 0 0 1 -0.0098,-0.0039 l -0.242187,-0.242188 -0.242188,-0.24414 a 0.0137054,0.0137054 0 0 1 -0.0039,-0.0098 v -0.423828 -0.425781 a 0.0137054,0.0137054 0 0 1 0.01367,-0.01367 z m 7.767578,0 h 1.941406 1.941406 a 0.0137054,0.0137054 0 0 1 0.01367,0.01367 v 0.478515 0.478516 a 0.0137054,0.0137054 0 0 1 -0.0059,0.01172 l -0.269531,0.189453 -0.269532,0.189453 a 0.0137054,0.0137054 0 0 1 -0.0078,0.002 h -1.429688 -1.429687 a 0.0137054,0.0137054 0 0 1 -0.0098,-0.0039 l -0.242187,-0.242188 -0.242188,-0.24414 a 0.0137054,0.0137054 0 0 1 -0.0039,-0.0098 v -0.423828 -0.425781 a 0.0137054,0.0137054 0 0 1 0.01367,-0.01367 z m 10.435547,0 h 1.943359 1.941406 a 0.0137054,0.0137054 0 0 1 0.01367,0.01367 v 0.425781 0.423828 a 0.0137054,0.0137054 0 0 1 -0.0039,0.0098 l -0.244141,0.24414 -0.242187,0.242188 a 0.0137054,0.0137054 0 0 1 -0.0098,0.0039 h -1.429687 -1.427735 a 0.0137054,0.0137054 0 0 1 -0.0078,-0.002 l -0.271485,-0.189453 -0.269531,-0.189453 a 0.0137054,0.0137054 0 0 1 -0.0059,-0.01172 v -0.478516 -0.478515 a 0.0137054,0.0137054 0 0 1 0.01367,-0.01367 z m 7.767578,0 h 1.941406 1.943359 a 0.0137054,0.0137054 0 0 1 0.01367,0.01367 v 0.425781 0.423828 a 0.0137054,0.0137054 0 0 1 -0.0039,0.0098 l -0.244141,0.24414 -0.242187,0.242188 a 0.0137054,0.0137054 0 0 1 -0.0098,0.0039 h -1.429687 -1.429688 a 0.0137054,0.0137054 0 0 1 -0.0078,-0.002 L 90.025391,97.873047 89.755859,97.683594 A 0.0137054,0.0137054 0 0 1 89.75,97.671875 v -0.478516 -0.478515 a 0.0137054,0.0137054 0 0 1 0.01367,-0.01367 z"
     transform="matrix(1.0722941,0,0,1.0722941,-58.789777,-55.18126)" /></svg>
