<?xml version="1.0" encoding="UTF-8" standalone="no"?>
<!-- Created with Inkscape (http://www.inkscape.org/) -->

<svg
   width="30.740467mm"
   height="30.736416mm"
   viewBox="0 0 30.740467 30.736416"
   version="1.1"
   id="svg1"
   inkscape:version="1.3.2 (091e20e, 2023-11-25, custom)"
   sodipodi:docname="aimpere.svg"
   xml:space="preserve"
   xmlns:inkscape="http://www.inkscape.org/namespaces/inkscape"
   xmlns:sodipodi="http://sodipodi.sourceforge.net/DTD/sodipodi-0.dtd"
   xmlns="http://www.w3.org/2000/svg"
   xmlns:svg="http://www.w3.org/2000/svg"><sodipodi:namedview
     id="namedview1"
     pagecolor="#ffffff"
     bordercolor="#000000"
     borderopacity="0.25"
     inkscape:showpageshadow="2"
     inkscape:pageopacity="0.0"
     inkscape:pagecheckerboard="0"
     inkscape:deskcolor="#d1d1d1"
     inkscape:document-units="mm"
     showgrid="false"
     inkscape:zoom="2.8284271"
     inkscape:cx="149.72986"
     inkscape:cy="424.7944"
     inkscape:window-width="1920"
     inkscape:window-height="991"
     inkscape:window-x="-9"
     inkscape:window-y="-9"
     inkscape:window-maximized="1"
     inkscape:current-layer="svg1"><inkscape:grid
       id="grid2"
       units="mm"
       originx="-81.345256"
       originy="-105.88238"
       spacingx="0.99999998"
       spacingy="1"
       empcolor="#0099e5"
       empopacity="0.30196078"
       color="#0099e5"
       opacity="0.14901961"
       empspacing="5"
       dotted="false"
       gridanglex="30"
       gridanglez="30"
       visible="false" /></sodipodi:namedview><defs
     id="defs1" /><path
     style="fill:#000000;stroke-width:1.21883"
     d="m 3.3261091,30.642595 c -0.458364,-0.096 -1.140213,-0.39309 -1.55142,-0.67601 -0.87711596,-0.60346 -1.55499096,-1.69536 -1.71928896,-2.76932 -0.05058,-0.33037 -0.06399,-3.55484 -0.05046,-12.10074 0.01743,-10.9968596 0.0245,-11.6705596 0.126148,-12.0106796 0.427333,-1.43008 1.52287496,-2.52268003 2.96499096,-2.95701003 0.327718,-0.0987 1.094701,-0.10664 12.0004479,-0.1239 8.545908,-0.0135 11.770378,-1.2e-4 12.100758,0.0505 1.71201,0.2619 3.09303,1.58899003 3.44788,3.31321003 0.0851,0.41323 0.0953,1.70018 0.0953,11.9981896 0,10.29802 -0.01,11.58496 -0.0953,11.99819 -0.34344,1.66877 -1.61142,2.93677 -3.2802,3.28021 -0.41377,0.0852 -1.69136,0.0947 -12.0407,0.0903 -9.9270289,-0.004 -11.6377619,-0.0174 -11.9981939,-0.0929 z m 6.8574009,-5.7845 c 0.128671,-0.0785 0.212295,-0.19166 0.254893,-0.34509 0.04254,-0.15295 0.0635,-2.13721 0.06374,-6.01039 3.65e-4,-6.29798 0.01255,-6.06973 -0.337311,-6.299 -0.151256,-0.0991 -0.3170289,-0.1097 -1.7074419,-0.1097 -1.678374,0 -1.787483,0.019 -1.953585,0.3402 -0.07155,0.1384 -0.08495,1.10511 -0.08495,6.13448 v 5.97019 l 0.128403,0.16324 c 0.07057,0.0898 0.185482,0.1863 0.255235,0.21448 0.06972,0.0282 0.815932,0.0529 1.658178,0.0548 1.414668,0.004 1.5459599,-0.005 1.7228479,-0.1131 z m 5.923791,-0.006 c 0.08593,-0.0675 0.18397,-0.22295 0.217951,-0.34531 0.03888,-0.13989 0.06192,-1.43785 0.06216,-3.49658 3.17e-4,-3.10415 0.0061,-3.29694 0.122127,-3.71362 0.234526,-0.84633 0.581856,-1.34831 1.151121,-1.66368 0.298247,-0.16522 0.360492,-0.17643 0.979084,-0.17643 0.585521,0 0.693861,0.0169 0.953451,0.14956 0.53059,0.27097 0.87763,0.79646 1.07065,1.62117 0.0384,0.1639 0.0781,1.68917 0.10068,3.85767 l 0.0372,3.58661 0.13671,0.1367 c 0.13493,0.13495 0.15869,0.13694 1.84999,0.15438 l 1.7133,0.0177 0.21137,-0.21137 0.21138,-0.21138 -0.0257,-3.94996 c -0.0269,-4.13889 -0.0368,-4.30583 -0.31771,-5.41329 -0.39359,-1.55161 -1.33205,-2.61269 -2.69234,-3.0441 -1.04234,-0.33058 -2.51033,-0.32272 -3.544168,0.019 -0.622345,0.20569 -1.283315,0.64809 -1.645294,1.10124 l -0.281367,0.35224 -0.03193,-0.55436 c -0.03315,-0.57608 -0.101163,-0.7791 -0.295797,-0.88327 -0.07033,-0.0377 -0.758171,-0.0614 -1.774807,-0.0614 H 12.65532 l -0.175536,0.17555 -0.175548,0.17553 0.0024,6.02497 c 0.0012,4.88569 0.01719,6.05211 0.08166,6.16849 0.159166,0.28717 0.257891,0.30248 1.964919,0.30476 1.520974,0.002 1.60589,-0.004 1.754502,-0.12066 z M 9.2210021,10.873035 c 0.8315809,-0.2596 1.4484299,-0.8809996 1.7305639,-1.7433996 0.16804,-0.51364 0.110669,-1.30525 -0.132109,-1.82381 -0.777611,-1.6607 -2.8930439,-2.06653 -4.1869869,-0.80324 -1.417399,1.38384 -0.874606,3.7178896 1.016696,4.3718896 0.404456,0.13986 1.121285,0.1392 1.571836,-0.001 z"
     id="path12" /></svg>
