<?xml version="1.0" encoding="UTF-8" standalone="no"?>
<!-- Created with Inkscape (http://www.inkscape.org/) -->

<svg
   width="36.518364mm"
   height="31.256838mm"
   viewBox="0 0 36.518364 31.256838"
   version="1.1"
   id="svg1"
   inkscape:version="1.3.2 (091e20e, 2023-11-25, custom)"
   sodipodi:docname="aimpere.svg"
   xml:space="preserve"
   xmlns:inkscape="http://www.inkscape.org/namespaces/inkscape"
   xmlns:sodipodi="http://sodipodi.sourceforge.net/DTD/sodipodi-0.dtd"
   xmlns="http://www.w3.org/2000/svg"
   xmlns:svg="http://www.w3.org/2000/svg"><sodipodi:namedview
     id="namedview1"
     pagecolor="#ffffff"
     bordercolor="#000000"
     borderopacity="0.25"
     inkscape:showpageshadow="2"
     inkscape:pageopacity="0.0"
     inkscape:pagecheckerboard="0"
     inkscape:deskcolor="#d1d1d1"
     inkscape:document-units="mm"
     showgrid="false"
     inkscape:zoom="2"
     inkscape:cx="262"
     inkscape:cy="213.25"
     inkscape:window-width="1920"
     inkscape:window-height="991"
     inkscape:window-x="-9"
     inkscape:window-y="-9"
     inkscape:window-maximized="1"
     inkscape:current-layer="svg1"><inkscape:grid
       id="grid2"
       units="mm"
       originx="-0.076291627"
       originy="-105.88237"
       spacingx="0.99999998"
       spacingy="1"
       empcolor="#0099e5"
       empopacity="0.30196078"
       color="#0099e5"
       opacity="0.14901961"
       empspacing="5"
       dotted="false"
       gridanglex="30"
       gridanglez="30"
       visible="false" /></sodipodi:namedview><defs
     id="defs1" /><path
     style="fill:#000000"
     d="m 0.027035,22.610033 c 0.02968,-9.48984 0.0071,-8.97339 0.473982,-10.82861 1.64608,-6.54052 7.5594152,-11.42425 14.213257,-11.73852 L 15.62352,2.9968027e-6 V 2.613713 5.227423 H 15.2008 c -1.582464,0 -3.652571,0.65549 -5.151482,1.63119 -2.8506898,1.85563 -4.546955,4.72205 -4.805736,8.12093 l -0.05022,0.65965 h 5.215081 5.215081 v 7.80882 7.80883 H 7.8117622 0 Z m 20.873682,0.27108 c 0,-8.95665 0.0042,-9.0797 0.362925,-10.69576 0.369978,-1.66663 1.273085,-3.76694 2.240579,-5.2108 2.525381,-3.76879 6.532837,-6.25205 11.043768,-6.84338 0.460166,-0.0603 1.09175,-0.10968 1.403521,-0.10968 h 0.566855 v 2.5927 2.5927 l -0.730963,0.0394 c -2.454499,0.13233 -4.774803,1.19913 -6.618774,3.0431 -1.843971,1.84397 -2.910773,4.16428 -3.043103,6.61877 l -0.03941,0.73097 h 5.216125 5.216124 v 7.80882 7.80883 H 28.70954 20.900716 Z"
     id="path2" /></svg>
