<?xml version="1.0" encoding="UTF-8" standalone="no"?>
<!-- Created with Inkscape (http://www.inkscape.org/) -->

<svg
   width="66.13591mm"
   height="54.017906mm"
   viewBox="0 0 66.13591 54.017906"
   version="1.1"
   id="svg1"
   inkscape:version="1.3.2 (091e20e, 2023-11-25, custom)"
   sodipodi:docname="aimpere.svg"
   xml:space="preserve"
   xmlns:inkscape="http://www.inkscape.org/namespaces/inkscape"
   xmlns:sodipodi="http://sodipodi.sourceforge.net/DTD/sodipodi-0.dtd"
   xmlns="http://www.w3.org/2000/svg"
   xmlns:svg="http://www.w3.org/2000/svg"><sodipodi:namedview
     id="namedview1"
     pagecolor="#ffffff"
     bordercolor="#000000"
     borderopacity="0.25"
     inkscape:showpageshadow="2"
     inkscape:pageopacity="0.0"
     inkscape:pagecheckerboard="0"
     inkscape:deskcolor="#d1d1d1"
     inkscape:document-units="mm"
     showgrid="false"
     inkscape:zoom="2"
     inkscape:cx="433"
     inkscape:cy="517.25"
     inkscape:window-width="1920"
     inkscape:window-height="991"
     inkscape:window-x="-9"
     inkscape:window-y="-9"
     inkscape:window-maximized="1"
     inkscape:current-layer="svg1"><inkscape:grid
       id="grid2"
       units="mm"
       originx="-59.451864"
       originy="-51.736405"
       spacingx="0.99999998"
       spacingy="1"
       empcolor="#0099e5"
       empopacity="0.30196078"
       color="#0099e5"
       opacity="0.14901961"
       empspacing="5"
       dotted="false"
       gridanglex="30"
       gridanglez="30"
       visible="false" /></sodipodi:namedview><defs
     id="defs1" /><path
     style="fill:#000000"
     d="m 32.042646,53.829823 c -3.018031,-1.30921 -4.30042,-6.773361 -5.238395,-22.32035 -0.106518,-1.76554 -0.226096,-3.26255 -0.265729,-3.32667 -0.08665,-0.14021 -8.97029,-0.15972 -8.972582,-0.0197 -0.0038,0.23397 -0.398218,4.60989 -0.52105,5.7813 -0.925041,8.821799 -2.666785,12.729349 -5.671603,12.724059 -3.0802087,-0.005 -5.0925647,-4.6387 -5.7605137,-13.263109 l -0.09178,-1.18501 0.332987,-0.33299 c 0.421649,-0.42164 0.987135,-0.43477 1.453377,-0.0337 l 0.347909,0.29926 0.292774,2.46332 c 1.558113,13.109539 5.2130097,13.269889 6.7722187,0.29713 0.33532,-2.7899 0.65996,-6.59895 0.574239,-6.73765 -0.03721,-0.0602 -3.351556,-0.10948 -7.3652047,-0.10948 h -7.297541 l -0.317106,-0.31714 c -0.419528,-0.41952 -0.419528,-1.01331 0,-1.43284 l 0.317106,-0.31711 h 7.424076 7.4240757 l 0.07611,-0.80744 c 0.04186,-0.4441 0.163363,-2.14457 0.270002,-3.77884 0.969723,-14.8612898 2.294491,-20.1452298 5.308185,-21.17208977 2.728577,-0.929716 4.622967,1.34305997 5.733598,6.87885997 0.690556,3.4419898 0.679523,4.1727398 -0.06771,4.4849598 l -0.447571,0.187 -0.443983,-0.18551 -0.443983,-0.1855 -0.130019,-0.49448 c -0.07151,-0.27197 -0.27596,-1.3374498 -0.454332,-2.3677498 -1.66018,-9.589416 -4.65871,-8.03086997 -6.015756,3.1268098 -0.450743,3.70602 -1.237773,13.96694 -1.089668,14.20658 0.03651,0.0591 2.010504,0.1074 4.386656,0.1074 h 4.320276 l -1.05e-4,-0.16149 c -1.61e-4,-0.245 -0.496843,-7.88439 -0.595568,-9.16032 l -0.08652,-1.11817 0.335223,-0.33523 c 0.352344,-0.35234 0.938584,-0.44253 1.371271,-0.21097 0.493687,0.26422 0.543674,0.65737 0.977978,7.69181 0.105286,1.70532 0.192,3.14419 0.192698,3.19748 6.98e-4,0.0533 1.977893,0.0969 4.393766,0.0969 h 4.392496 l 1.3e-4,-0.16149 c 4.9e-4,-0.59016 0.55589,-8.69156 0.7152,-10.43218 0.88818,-9.7046998 2.144013,-13.8954598 4.511028,-15.05352977 L 43.408666,-2.771726e-6 44.085456,0.05749723 c 3.91184,0.332116 5.65704,7.23185597 6.55344,25.90939577 8.5e-4,0.0178 3.34701,0.0323 7.4359,0.0323 h 7.43436 l 0.31711,0.31711 c 0.38483,0.38483 0.41397,0.95559 0.0705,1.38036 l -0.24664,0.30499 -2.30488,0.0646 -2.30489,0.0646 -0.09,0.77514 c -0.0495,0.42633 -0.18436,1.85066 -0.29967,3.16518 -0.90473,10.314219 -2.62138,14.598589 -5.8493,14.598589 h -0.75118 l -0.67102,-0.33438 c -2.34955,-1.17082 -3.67976,-5.4668 -4.47681,-14.457989 -0.10708,-1.20794 -0.22952,-2.5596 -0.27209,-3.0037 l -0.0774,-0.80744 h -2.03425 -2.03426 l -0.2809,-0.29901 c -0.38493,-0.40974 -0.37633,-1.11659 0.0181,-1.48715 l 0.299,-0.2809 h 1.88962 c 2.30364,0 2.08445,0.61577 1.70632,-4.79349 -0.92908,-13.2907098 -2.16427,-18.9776598 -4.12187,-18.9776598 -2.232,0 -3.32451,6.32318 -4.464295,25.8382098 -0.980573,16.789109 -1.834783,21.96439 -4.08679,24.76014 -0.833808,1.03513 -2.318218,1.47313 -3.400858,1.00348 z m 1.513872,-2.19221 c 1.794957,-1.25723 2.71581,-6.775231 3.72342,-22.3118 l 0.0817,-1.25961 h -4.277249 -4.277241 l 5.17e-4,0.22608 c 0.0025,1.08774 0.577722,9.08096 0.848371,11.788689 0.824576,8.249541 2.315456,12.666841 3.90048,11.556641 z m 22.130128,-7.673461 c 1.36721,-1.43723 2.38888,-6.418069 3.02949,-14.769409 l 0.0869,-1.13231 -3.98438,0.0342 -3.98438,0.0342 0.0379,0.90433 c 0.3564,8.49314 2.12879,15.438339 3.93981,15.438339 h 0.39015 z"
     id="path16" /></svg>
