<?xml version="1.0" encoding="UTF-8" standalone="no"?>
<!-- Created with Inkscape (http://www.inkscape.org/) -->

<svg
   width="57.400391mm"
   height="49.25391mm"
   viewBox="0 0 57.400391 49.25391"
   version="1.1"
   id="svg1"
   inkscape:version="1.3.2 (091e20e, 2023-11-25, custom)"
   sodipodi:docname="aimpere.svg"
   xml:space="preserve"
   xmlns:inkscape="http://www.inkscape.org/namespaces/inkscape"
   xmlns:sodipodi="http://sodipodi.sourceforge.net/DTD/sodipodi-0.dtd"
   xmlns="http://www.w3.org/2000/svg"
   xmlns:svg="http://www.w3.org/2000/svg"><sodipodi:namedview
     id="namedview1"
     pagecolor="#ffffff"
     bordercolor="#000000"
     borderopacity="0.25"
     inkscape:showpageshadow="2"
     inkscape:pageopacity="0.0"
     inkscape:pagecheckerboard="0"
     inkscape:deskcolor="#d1d1d1"
     inkscape:document-units="mm"
     showgrid="false"
     inkscape:zoom="2"
     inkscape:cx="433"
     inkscape:cy="517.25"
     inkscape:window-width="1920"
     inkscape:window-height="991"
     inkscape:window-x="-9"
     inkscape:window-y="-9"
     inkscape:window-maximized="1"
     inkscape:current-layer="svg1"><inkscape:grid
       id="grid2"
       units="mm"
       originx="-1.0605468"
       originy="-1.0585937"
       spacingx="0.99999998"
       spacingy="1"
       empcolor="#0099e5"
       empopacity="0.30196078"
       color="#0099e5"
       opacity="0.14901961"
       empspacing="5"
       dotted="false"
       gridanglex="30"
       gridanglez="30"
       visible="false" /></sodipodi:namedview><defs
     id="defs1" /><g
     id="g22"
     transform="translate(-1.0605468,-1.0585937)"><path
       id="path11"
       style="display:inline;fill:#000000;stroke-width:1.13573"
       sodipodi:type="inkscape:offset"
       inkscape:radius="-1.0593129"
       inkscape:original="M 3.8984375 0 L 3.3261719 0.17382812 C 1.7061901 0.66526201 0.43339813 2.0686017 0.12304688 3.7050781 C -0.040399685 4.5669275 -0.040399685 46.804165 0.12304688 47.666016 C 0.42537425 49.260182 1.622029 50.61918 3.1953125 51.15625 L 3.78125 51.357422 L 29.701172 51.363281 L 55.623047 51.371094 L 56.193359 51.197266 C 57.813341 50.705833 59.088087 49.302491 59.398438 47.666016 C 59.561884 46.804165 59.561884 4.5669275 59.398438 3.7050781 C 59.088087 2.0686017 57.813341 0.665262 56.193359 0.17382812 L 55.623047 0 L 29.759766 0 L 3.8984375 0 z M 4.3808594 3.9492188 L 29.78125 3.9492188 L 55.179688 3.9492188 L 55.371094 4.1621094 L 55.564453 4.375 L 55.564453 7.1269531 L 55.564453 9.8769531 L 29.759766 9.8769531 L 3.9570312 9.8769531 L 3.9570312 7.1054688 L 3.9570312 4.3339844 L 4.1679688 4.1425781 L 4.3808594 3.9492188 z M 7.8222656 5.4609375 L 7.5136719 5.703125 C 6.6230551 6.4036845 6.6783433 7.5018472 7.6347656 8.1523438 L 7.9667969 8.3789062 L 8.46875 8.328125 C 9.7364606 8.1995564 10.245358 6.7590299 9.3417969 5.8554688 L 8.9472656 5.4609375 L 8.3847656 5.4609375 L 7.8222656 5.4609375 z M 12.535156 5.4609375 L 12.148438 5.8457031 C 11.920109 6.0740326 11.728851 6.4065696 11.681641 6.6582031 L 11.601562 7.0839844 L 11.824219 7.5117188 C 11.946212 7.7467933 12.225786 8.0346111 12.445312 8.1523438 C 12.934698 8.4148084 13.276709 8.4219884 13.783203 8.1816406 C 15.202651 7.5080683 14.673421 5.4609375 13.080078 5.4609375 L 12.535156 5.4609375 z M 17.330078 5.4609375 L 16.9375 5.8535156 C 16.721074 6.0699416 16.508747 6.419122 16.466797 6.6289062 L 16.390625 7.0097656 L 16.628906 7.5019531 C 16.776211 7.8062433 17.008942 8.0636914 17.240234 8.1777344 C 18.861424 8.9770868 20.185573 6.8231293 18.761719 5.703125 L 18.453125 5.4609375 L 17.892578 5.4609375 L 17.330078 5.4609375 z M 3.9570312 13.830078 L 29.759766 13.830078 L 55.564453 13.830078 L 55.564453 30.433594 L 55.564453 47.037109 L 55.351562 47.228516 L 55.138672 47.421875 L 29.740234 47.421875 L 4.3417969 47.421875 L 4.1484375 47.208984 L 3.9570312 46.996094 L 3.9570312 30.412109 L 3.9570312 13.830078 z M 35.455078 18.873047 C 35.048964 18.946944 34.6666 19.158449 34.380859 19.541016 C 34.22061 19.755568 31.509958 24.40322 28.357422 29.869141 L 22.626953 39.808594 L 22.585938 40.388672 L 22.542969 40.970703 L 22.810547 41.425781 C 22.973613 41.705042 23.276265 41.986919 23.589844 42.152344 C 24.475422 42.619523 25.53841 42.430869 26.046875 41.716797 C 26.689523 40.814279 37.785976 21.416673 37.847656 21.087891 C 38.112519 19.676048 36.673422 18.651354 35.455078 18.873047 z M 17.351562 21.041016 L 16.916016 21.179688 L 12.810547 25.263672 C 8.0599523 29.989337 8.0123919 30.055609 8.4960938 31.34375 C 8.8137388 32.189666 16.865099 39.97871 17.544922 40.097656 C 18.992776 40.350979 20.267627 38.83162 19.757812 37.460938 C 19.690874 37.280971 18.163351 35.657015 16.361328 33.851562 L 13.083984 30.568359 L 16.359375 27.285156 C 18.16061 25.478626 19.690092 23.851841 19.757812 23.671875 C 20.310333 22.203673 18.819005 20.574504 17.351562 21.041016 z M 42.167969 21.041016 C 40.700526 20.574504 39.211152 22.203673 39.763672 23.671875 C 39.831399 23.851841 41.360874 25.478626 43.162109 27.285156 L 46.435547 30.568359 L 43.160156 33.851562 C 41.358133 35.657014 39.828659 37.280971 39.761719 37.460938 C 39.439498 38.327255 39.808498 39.320514 40.640625 39.824219 C 41.167 40.142843 42.033595 40.191859 42.523438 39.931641 C 43.007009 39.674755 50.88758 31.71442 51.025391 31.34375 C 51.505528 30.052334 51.459446 29.989205 46.708984 25.263672 L 42.603516 21.179688 L 42.167969 21.041016 z "
       d="M 4.0585937,1.0585937 3.6347656,1.1875 a 1.0594189,1.0594189 0 0 1 -0.00195,0 c -1.2313902,0.3735517 -2.236531,1.4903575 -2.46875,2.7148438 0.031783,-0.1675912 0.00617,-0.041835 0.00195,0.050781 -0.00421,0.092616 -0.00931,0.2299748 -0.013672,0.4042969 -0.00873,0.3486441 -0.015806,0.8438293 -0.023437,1.4609375 -0.015263,1.2342163 -0.028854,2.9581431 -0.039063,5.0039066 -0.020416,4.091526 -0.029297,9.477239 -0.029297,14.863281 0,5.386041 0.00888,10.771755 0.029297,14.863281 0.010208,2.045763 0.0238,3.76969 0.039063,5.003906 0.00763,0.617109 0.014706,1.112294 0.023437,1.460938 0.00437,0.174322 0.00946,0.311681 0.013672,0.404297 0.00421,0.09262 0.02983,0.218371 -0.00195,0.05078 0.2275176,1.199696 1.161399,2.271928 2.3730469,2.685547 a 1.0594189,1.0594189 0 0 1 0.00195,0 l 0.4199219,0.144531 25.7421876,0.0059 25.763672,0.0078 0.419922,-0.128906 a 1.0594189,1.0594189 0 0 1 0.002,0 c 1.231615,-0.37362 2.238636,-1.491159 2.470703,-2.714844 -0.03178,0.16759 -0.0062,0.04183 -0.002,-0.05078 0.0042,-0.09262 0.0093,-0.229975 0.01367,-0.404297 0.0087,-0.348644 0.01581,-0.843829 0.02344,-1.460938 0.01526,-1.234216 0.02885,-2.958143 0.03906,-5.003906 0.02042,-4.091526 0.0293,-9.47724 0.0293,-14.863281 10e-7,-5.386042 -0.0089,-10.771755 -0.0293,-14.863281 -0.01021,-2.0457635 -0.0238,-3.7696902 -0.03906,-5.0039066 -0.0076,-0.6171082 -0.01471,-1.1122934 -0.02344,-1.4609375 -0.0044,-0.1743221 -0.0095,-0.311681 -0.01367,-0.4042969 -0.0042,-0.092616 -0.02983,-0.2183718 0.002,-0.050781 C 58.125355,2.6786574 57.118336,1.5611204 55.886719,1.1875 a 1.0594189,1.0594189 0 0 1 -0.002,0 L 55.464844,1.0585937 H 29.759766 Z M 4.3808594,2.890625 H 29.78125 55.179687 a 1.0594189,1.0594189 0 0 1 0.78711,0.3496094 l 0.189453,0.2109375 0.191406,0.2109375 A 1.0594189,1.0594189 0 0 1 56.623047,4.375 v 2.7519531 2.75 A 1.0594189,1.0594189 0 0 1 55.564453,10.935547 H 29.759766 3.9570313 A 1.0594189,1.0594189 0 0 1 2.8984375,9.8769531 V 7.1054687 4.3339844 A 1.0594189,1.0594189 0 0 1 3.2460938,3.5488281 L 3.4550781,3.3574219 3.6679688,3.1660156 A 1.0594189,1.0594189 0 0 1 4.3808594,2.890625 Z m 3.8085937,3.6289062 -0.021484,0.017578 C 7.944989,6.7132627 7.9356601,6.8182458 7.9394531,6.8945312 c 0.00381,0.076582 0.034169,0.2081219 0.2910157,0.3828125 a 1.0594189,1.0594189 0 0 1 0.00195,0 l 0.011719,0.00781 0.1171875,-0.011719 C 8.6142118,7.2477906 8.6785986,7.1485221 8.7207031,7.0292969 8.7628076,6.9100717 8.7742336,6.7879054 8.5917969,6.6054687 L 8.5078125,6.5195312 H 8.3847656 Z m 4.7832029,0 -0.07422,0.076172 c -0.07384,0.073839 -0.192995,0.3495616 -0.175782,0.2578125 l -0.01172,0.066406 0.05273,0.1035156 c -0.01996,-0.038463 0.265692,0.2403895 0.181641,0.1953125 0.31532,0.169111 0.05056,0.1635213 0.382812,0.00586 0.28814,-0.1367312 0.250346,-0.2230461 0.207031,-0.390625 C 13.491842,6.6664055 13.42308,6.5195312 13.080078,6.5195312 Z m 4.798828,0 -0.08398,0.083984 c -0.05854,0.058543 -0.230139,0.4749517 -0.181641,0.2324219 l -0.0059,0.033203 0.08203,0.171875 c 0.05874,0.1213441 0.210012,0.2284538 0.126953,0.1875 0.36951,0.1821925 0.420559,0.056998 0.53125,-0.1230469 0.110332,-0.1794598 0.190619,-0.3126713 -0.132812,-0.5683593 l -0.01953,-0.017578 H 17.892578 Z M 3.9570313,12.771484 H 29.759766 55.564453 a 1.0594189,1.0594189 0 0 1 1.058594,1.058594 v 16.603516 16.603515 a 1.0594189,1.0594189 0 0 1 -0.34961,0.78711 l -0.210937,0.189453 -0.210938,0.191406 a 1.0594189,1.0594189 0 0 1 -0.71289,0.275391 H 29.740234 4.3417969 A 1.0594189,1.0594189 0 0 1 3.5585938,48.134766 L 3.3652344,47.921875 a 1.0594189,1.0594189 0 0 1 -0.00391,-0.0039 L 3.1699219,47.705078 A 1.0594189,1.0594189 0 0 1 2.8984375,46.996094 V 30.412109 13.830078 a 1.0594189,1.0594189 0 0 1 1.0585938,-1.058594 z m 31.6874997,7.144532 c -0.171076,0.03113 -0.287432,0.09023 -0.414062,0.259765 0.10019,-0.134142 -0.02664,0.04022 -0.119141,0.19336 -0.0925,0.153137 -0.222762,0.372453 -0.384766,0.646484 -0.324006,0.548063 -0.775056,1.318991 -1.320312,2.253906 -1.090512,1.869831 -2.555321,4.397211 -4.130859,7.128906 l -5.609375,9.728516 -0.02344,0.335938 a 1.0594189,1.0594189 0 0 1 0,0.0039 l -0.01953,0.251953 0.101562,0.169922 a 1.0594189,1.0594189 0 0 1 0,0.0039 c 0.03178,0.05443 0.236241,0.257308 0.359375,0.322266 0.472069,0.249036 0.944636,0.104358 1.09961,-0.113282 -0.02191,0.03077 0.278219,-0.44368 0.640625,-1.05664 0.362406,-0.61296 0.847145,-1.444145 1.412109,-2.417969 1.129928,-1.947647 2.579524,-4.464647 4.009766,-6.964844 1.430241,-2.500196 2.84125,-4.983741 3.898437,-6.859375 0.528594,-0.937816 0.969874,-1.725209 1.277344,-2.283203 0.153735,-0.278997 0.274023,-0.500104 0.353516,-0.65039 0.0057,-0.01068 0.0065,-0.01348 0.01172,-0.02344 0.0361,-0.282544 -0.03769,-0.47691 -0.263672,-0.667969 -0.241959,-0.204567 -0.624827,-0.307951 -0.878906,-0.261718 z m -17.972656,2.134765 -0.189453,0.06055 -3.923828,3.904297 c -2.374793,2.362331 -3.5822492,3.595312 -4.0039065,4.189453 -0.2108286,0.297071 -0.1973655,0.355961 -0.1972656,0.353516 9.98e-5,-0.0024 0.012993,0.09822 0.1308594,0.412109 -0.06256,-0.166602 -0.046867,-0.09082 0.00586,-0.01953 0.052726,0.07129 0.1421801,0.183313 0.2578125,0.318359 0.2312649,0.270093 0.5655839,0.635353 0.9628909,1.052735 0.794613,0.834762 1.845748,1.884213 2.90625,2.910156 1.060501,1.025943 2.133034,2.029009 2.970703,2.773437 0.418834,0.372215 0.781316,0.68096 1.039062,0.884766 0.07841,0.062 0.121064,0.09105 0.175782,0.130859 0.581673,0.02935 1.097806,-0.583632 0.945312,-1.134765 -0.03161,-0.03748 -0.05126,-0.0627 -0.0957,-0.113282 -0.166973,-0.190053 -0.414091,-0.459528 -0.716797,-0.78125 -0.605412,-0.643443 -1.433575,-1.496325 -2.328125,-2.392578 l -3.277344,-3.283203 a 1.0594189,1.0594189 0 0 1 0,-1.496094 l 3.275391,-3.283203 c 0.894213,-0.896841 1.722123,-1.750143 2.328125,-2.394531 0.303001,-0.322194 0.551359,-0.592709 0.71875,-0.783203 0.04455,-0.0507 0.06396,-0.07567 0.0957,-0.113281 0.18007,-0.627524 -0.503804,-1.375884 -1.078125,-1.195313 z m 24.173828,0 c -0.57456,-0.180649 -1.256582,0.567125 -1.076172,1.195313 0.03175,0.03761 0.05115,0.06258 0.0957,0.113281 0.167393,0.190495 0.41575,0.461009 0.71875,0.783203 0.606001,0.644388 1.433913,1.497691 2.328125,2.394531 l 3.273438,3.283203 a 1.0594189,1.0594189 0 0 1 0,1.496094 l -3.275391,3.283203 c -0.894684,0.896388 -1.722162,1.749059 -2.328125,2.392578 -0.302981,0.32176 -0.551587,0.593126 -0.71875,0.783204 -0.04116,0.0468 -0.05956,0.06778 -0.08984,0.103515 -0.107083,0.361224 0.01195,0.794472 0.416016,1.039063 0.06346,0.03842 0.270551,0.107974 0.466797,0.11914 0.196246,0.01117 0.379072,-0.04525 0.371094,-0.04102 -0.207032,0.109981 -0.08868,0.05583 -0.02148,-0.002 0.0672,-0.05778 0.169615,-0.151385 0.294922,-0.267579 0.250616,-0.232387 0.595232,-0.560597 0.996094,-0.951171 0.801725,-0.78115 1.833084,-1.809092 2.853516,-2.839844 1.020431,-1.030753 2.032504,-2.066481 2.791015,-2.861328 0.379256,-0.397424 0.695839,-0.735507 0.914063,-0.976563 0.09758,-0.107786 0.166698,-0.186764 0.216797,-0.246094 0.04483,-0.140017 0.09175,-0.293999 0.0918,-0.292968 6.2e-5,0.0015 0.01167,-0.05654 -0.199218,-0.353516 -0.421778,-0.593942 -1.629136,-1.827144 -4.003907,-4.189453 l -3.923828,-3.904297 -0.189453,-0.06055 z" /><path
       style="fill:#000000;fill-opacity:1;stroke-width:0.264583"
       id="path21"
       sodipodi:type="arc"
       sodipodi:cx="8.285677"
       sodipodi:cy="6.7742682"
       sodipodi:rx="1.9176589"
       sodipodi:ry="1.9176589"
       sodipodi:start="3.1415927"
       sodipodi:end="3.062612"
       sodipodi:open="true"
       sodipodi:arc-type="arc"
       d="M 6.368018,6.7742682 A 1.9176589,1.9176589 0 0 1 8.247815,4.856983 1.9176589,1.9176589 0 0 1 10.201841,6.6985589 1.9176589,1.9176589 0 0 1 8.399204,8.6885637 1.9176589,1.9176589 0 0 1 6.373996,6.9255687" /><path
       style="fill:#000000;fill-opacity:1;stroke-width:0.264583"
       id="path21-7"
       sodipodi:type="arc"
       sodipodi:cx="13.228597"
       sodipodi:cy="6.7742682"
       sodipodi:rx="1.9176589"
       sodipodi:ry="1.9176589"
       sodipodi:start="3.1415927"
       sodipodi:end="3.062612"
       sodipodi:open="true"
       sodipodi:arc-type="arc"
       d="M 11.310938,6.7742682 A 1.9176589,1.9176589 0 0 1 13.190735,4.856983 1.9176589,1.9176589 0 0 1 15.144761,6.6985589 1.9176589,1.9176589 0 0 1 13.342124,8.6885637 1.9176589,1.9176589 0 0 1 11.316916,6.9255687" /><path
       style="fill:#000000;fill-opacity:1;stroke-width:0.264583"
       id="path21-7-5"
       sodipodi:type="arc"
       sodipodi:cx="18.171516"
       sodipodi:cy="6.7742682"
       sodipodi:rx="1.9176589"
       sodipodi:ry="1.9176589"
       sodipodi:start="3.1415927"
       sodipodi:end="3.062612"
       sodipodi:open="true"
       sodipodi:arc-type="arc"
       d="M 16.253857,6.7742682 A 1.9176589,1.9176589 0 0 1 18.133654,4.856983 1.9176589,1.9176589 0 0 1 20.08768,6.6985589 1.9176589,1.9176589 0 0 1 18.285043,8.6885637 1.9176589,1.9176589 0 0 1 16.259836,6.9255687" /></g></svg>
