<?xml version="1.0" encoding="UTF-8" standalone="no"?>
<!-- Created with Inkscape (http://www.inkscape.org/) -->

<svg
   width="30.036367mm"
   height="30.731379mm"
   viewBox="0 0 30.036367 30.731379"
   version="1.1"
   id="svg1"
   inkscape:version="1.3.2 (091e20e, 2023-11-25, custom)"
   sodipodi:docname="aimpere.svg"
   xml:space="preserve"
   xmlns:inkscape="http://www.inkscape.org/namespaces/inkscape"
   xmlns:sodipodi="http://sodipodi.sourceforge.net/DTD/sodipodi-0.dtd"
   xmlns="http://www.w3.org/2000/svg"
   xmlns:svg="http://www.w3.org/2000/svg"><sodipodi:namedview
     id="namedview1"
     pagecolor="#ffffff"
     bordercolor="#000000"
     borderopacity="0.25"
     inkscape:showpageshadow="2"
     inkscape:pageopacity="0.0"
     inkscape:pagecheckerboard="0"
     inkscape:deskcolor="#d1d1d1"
     inkscape:document-units="mm"
     showgrid="false"
     inkscape:zoom="2.8284271"
     inkscape:cx="149.72986"
     inkscape:cy="424.7944"
     inkscape:window-width="1920"
     inkscape:window-height="991"
     inkscape:window-x="-9"
     inkscape:window-y="-9"
     inkscape:window-maximized="1"
     inkscape:current-layer="svg1"><inkscape:grid
       id="grid2"
       units="mm"
       originx="-112.08572"
       originy="-105.88238"
       spacingx="0.99999998"
       spacingy="1"
       empcolor="#0099e5"
       empopacity="0.30196078"
       color="#0099e5"
       opacity="0.14901961"
       empspacing="5"
       dotted="false"
       gridanglex="30"
       gridanglez="30"
       visible="false" /></sodipodi:namedview><defs
     id="defs1" /><path
     style="fill:#000000;stroke-width:1.13864"
     d="M 0.08440117,30.627545 C 9.3941312,19.801035 11.677211,17.133055 11.677211,17.080285 c 0,-0.0354 -2.5789998,-3.81811 -5.7311098,-8.4060596 C 2.7939912,4.0862854 0.16662117,0.25823537 0.10749117,0.16746537 L 1.1734292e-6,0.00240537 H 4.4677612 8.9355212 L 12.802091,5.6406654 c 2.12662,3.10105 3.88324,5.6330396 3.90358,5.6266496 0.0204,-0.007 2.14972,-2.4693296 4.73195,-5.4732096 2.58223,-3.00388 4.76779,-5.53641003 4.85679,-5.62785003 L 26.456251,5.3674084e-6 27.750291,0.01620537 l 1.29405,0.0162 -5.57444,6.47897003 c -3.06593,3.5634496 -5.56339,6.5073096 -5.54989,6.5419196 0.0134,0.0346 2.69683,3.95206 5.96295,8.70546 3.26613,4.75339 5.98679,8.71679 6.04592,8.80756 l 0.10749,0.16506 h -4.46757 -4.46758 l -4.07682,-5.9397 c -2.24225,-3.26684 -4.10383,-5.93196 -4.13684,-5.92251 -0.033,0.009 -2.3478,2.67556 -5.1439898,5.92469 l -5.08397,5.90751 -1.33327,0.0162 c -1.27059003,0.0154 -1.32897003,0.0114 -1.24193003,-0.0901 z M 22.351791,23.000365 c -2.23445,-3.19576 -6.45285,-9.23139 -9.3742,-13.4125096 l -5.3115498,-7.60204 -2.02559,-10e-4 c -1.11408,-7.8e-4 -2.02561,0.0102 -2.02561,0.0244 0,0.0257 18.3095498,26.2371896 18.5858398,26.6069796 l 0.14575,0.19506 h 2.03401 2.03401 z"
     id="path8" /></svg>
