<?xml version="1.0" encoding="UTF-8" standalone="no"?>
<!-- Created with Inkscape (http://www.inkscape.org/) -->

<svg
   width="62.136879mm"
   height="51.994144mm"
   viewBox="0 0 62.136879 51.994144"
   version="1.1"
   id="svg1"
   inkscape:version="1.3.2 (091e20e, 2023-11-25, custom)"
   sodipodi:docname="aimpere.svg"
   xml:space="preserve"
   xmlns:inkscape="http://www.inkscape.org/namespaces/inkscape"
   xmlns:sodipodi="http://sodipodi.sourceforge.net/DTD/sodipodi-0.dtd"
   xmlns="http://www.w3.org/2000/svg"
   xmlns:svg="http://www.w3.org/2000/svg"><sodipodi:namedview
     id="namedview1"
     pagecolor="#ffffff"
     bordercolor="#000000"
     borderopacity="0.25"
     inkscape:showpageshadow="2"
     inkscape:pageopacity="0.0"
     inkscape:pagecheckerboard="0"
     inkscape:deskcolor="#d1d1d1"
     inkscape:document-units="mm"
     showgrid="false"
     inkscape:zoom="2"
     inkscape:cx="433"
     inkscape:cy="517.25"
     inkscape:window-width="1920"
     inkscape:window-height="991"
     inkscape:window-x="-9"
     inkscape:window-y="-9"
     inkscape:window-maximized="1"
     inkscape:current-layer="svg1"><inkscape:grid
       id="grid2"
       units="mm"
       originx="-126.03603"
       originy="-51.608342"
       spacingx="0.99999998"
       spacingy="1"
       empcolor="#0099e5"
       empopacity="0.30196078"
       color="#0099e5"
       opacity="0.14901961"
       empspacing="5"
       dotted="false"
       gridanglex="30"
       gridanglez="30"
       visible="false" /></sodipodi:namedview><defs
     id="defs1" /><path
     style="fill:#000000"
     d="m 29.971403,50.193226 -1.81518,-1.8007 -1.7389,1.72408 -1.73891,1.72409 h -0.55775 -0.55776 l -0.35434,-0.29816 -0.35434,-0.29816 -0.71013,-1.94407 -0.71014,-1.944056 -8.98756,-0.0333 -8.9875695,-0.0333 -0.68206,-0.31981 C 1.4900735,46.36652 0.53692347,45.23443 0.18809347,43.89515 L -6.5303701e-6,43.17302 V 33.02045 22.86788 L 0.25153347,22.54811 l 0.25153,-0.31978 h 0.40715 0.40715003 l 0.25154,0.31978 0.25153,0.31977 10e-4,10.20841 0.001,10.2084 0.28656,0.61541 c 0.78036,1.67585 0.59295,1.64677 10.3420495,1.60474 l 8.26442,-0.0356 -1.98392,-5.33252 c -1.2894,-3.46573 -1.98392,-5.49506 -1.98392,-5.79683 v -0.46431 l 0.39443,-0.42719 c 0.25589,-0.27715 0.54427,-0.45098 0.82104,-0.49492 l 0.42661,-0.0677 8.06875,2.99548 c 10.00747,3.71523 9.34505,3.38461 9.18419,4.58394 l -0.0661,0.49274 -1.67451,1.67772 -1.67451,1.67772 0.59596,0.60506 0.59596,0.60505 6.03287,0.0336 6.03287,0.0336 0.25538,0.23119 c 0.33326,0.3017 0.33973,0.95876 0.0127,1.28584 l -0.24272,0.24272 h -5.09527 -5.09527 l 0.25395,0.48722 0.25395,0.48721 -0.0848,0.453336 -0.0848,0.45335 -1.30571,1.3207 -1.30572,1.3207 -0.63028,0.0606 -0.63028,0.0606 z m 1.9884,-3.590296 -1.90241,-1.9052 v -0.38135 -0.38135 l 1.74285,-1.74597 c 1.18897,-1.19109 1.68716,-1.76673 1.5676,-1.8113 -10.2028,-3.80341 -14.49957,-5.38264 -14.53868,-5.34352 -0.0469,0.0469 5.29282,14.504526 5.39749,14.614176 0.0278,0.0291 0.83193,-0.72182 1.78698,-1.668726 l 1.73646,-1.72166 h 0.4076 0.4076 l 1.8888,1.87795 1.88881,1.877946 0.75966,-0.7529 0.75965,-0.7529 z m 16.96181,0.53925 c -0.36576,-0.29618 -0.37973,-0.935 -0.0281,-1.28684 l 0.26461,-0.2648 4.63892,-0.0607 4.63893,-0.0607 0.42684,-0.26549 c 0.59085,-0.3675 0.91187,-0.73436 1.20135,-1.3729 l 0.2476,-0.54613 0.003,-15.56471 0.003,-15.56472 H 31.069443 1.8211335 v 3.56675 3.56674 l -0.22709,0.28044 -0.22709,0.28044 h -0.45604003 -0.45604 L 0.22778347,19.56912 6.9346963e-4,19.28868 V 11.74248 4.1962804 L 0.18879347,3.4741504 c 0.34883,-1.33928 1.30198003,-2.47138 2.58867003,-3.07469997 l 0.68206,-0.31981 23.4744895,-0.0316 23.47448,-0.0316 0.28219,0.26509 c 0.34415,0.32332 0.36482,0.82200997 0.0502,1.21058997 l -0.23199,0.28651 -23.40332,0.0607 -23.4033195,0.0607 -0.42683,0.26549 c -0.59086,0.36751 -0.91187,0.73437 -1.20136,1.3729 l -0.24759,0.54613 -0.003,3.12508 -0.003,3.1250796 h 29.2483095 29.24832 l -0.003,-3.1250796 -0.003,-3.12508 -0.2476,-0.54613 c -0.28948,-0.63853 -0.6105,-1.00539 -1.20135,-1.3729 l -0.42684,-0.26549 -2.28651,-0.0607 -2.28651,-0.0607 -0.23176,-0.28651 c -0.31767,-0.39273 -0.29366,-0.88732997 0.0592,-1.21879997 L 53.980663,4.2655962e-7 56.329363,0.03980043 l 2.3487,0.0398 0.68205,0.31981 c 1.2867,0.60331997 2.23984,1.73541997 2.58868,3.07469997 l 0.18809,0.72213 V 23.68457 43.17291 l -0.18809,0.72213 c -0.34884,1.33928 -1.30198,2.47137 -2.58868,3.07469 l -0.68205,0.31981 -4.74359,0.0356 -4.74358,0.0356 z m -38.3407,-15.17456 c -0.26816,-0.23038 -3.2991795,-8.90521 -3.2991795,-9.44232 0,-0.65075 0.96706,-1.04321 1.46351,-0.59393 0.11458,0.10369 0.69207,1.60555 1.2833095,3.33746 1.2889,3.77552 0.97115,3.78578 2.34123,-0.0756 1.17437,-3.3098 1.31539,-3.57176 1.92281,-3.57176 0.51709,0 0.81903,0.49081 1.42286,2.31286 1.10623,3.33806 1.55098,4.51591 1.64097,4.34582 0.0482,-0.0912 0.5413,-1.46752 1.09566,-3.05852 0.55437,-1.59099 1.11167,-3.02459 1.23845,-3.18576 0.44314,-0.56336 1.54787,-0.22904 1.54787,0.46843 0,0.36942 -3.14479,9.22007 -3.36091,9.45887 -0.78308,0.8653 -1.27137,0.2102 -2.46171,-3.30268 -0.90024,-2.65675 -1.20099,-3.46938 -1.21271,-3.27679 -0.0212,0.34879 -2.36061,6.53143 -2.51418,6.64459 -0.29347,0.21626 -0.81913,0.18747 -1.10798,-0.0607 z m 16.80473,-0.01 c -0.27354,-0.30227 -3.23455,-8.92463 -3.23455,-9.41893 0,-0.6802 0.81073,-1.05657 1.37973,-0.64051 0.19893,0.14546 0.88229,1.95408 1.95148,5.1649 0.25202,0.7568 0.50159,1.33024 0.5546,1.2743 0.053,-0.0559 0.59072,-1.49433 1.19489,-3.19644 1.12024,-3.15602 1.31482,-3.51951 1.88408,-3.51951 0.59508,0 0.73845,0.27248 1.83263,3.48315 0.58689,1.7221 1.10242,3.17139 1.14561,3.22063 0.0432,0.0492 0.56798,-1.31429 1.16621,-3.03008 1.16145,-3.33117 1.28151,-3.55234 1.92841,-3.55234 h 0.41596 l 0.25153,0.31978 c 0.34064,0.43305 0.43804,0.0588 -1.3381,5.14153 -1.65179,4.72685 -1.77333,4.97585 -2.42876,4.97585 -0.58707,0 -0.75572,-0.32745 -1.86695,-3.62495 -0.58947,-1.74923 -1.10958,-3.13741 -1.15579,-3.08486 -0.0462,0.0526 -0.56522,1.46089 -1.15335,3.12962 -1.26737,3.59596 -1.74178,4.2262 -2.52763,3.35786 z m 16.62375,0.0667 c -0.20264,-0.14818 -3.34339,-9.00392 -3.35006,-9.44594 -0.002,-0.10781 0.11022,-0.33992 0.24857,-0.51579 l 0.25153,-0.31978 h 0.40715 c 0.61113,0 0.75156,0.26548 1.86816,3.53162 0.5568,1.6287 1.05226,3.00485 1.10102,3.05811 0.0488,0.0533 0.59993,-1.33718 1.22482,-3.08986 1.32335,-3.71165 1.44617,-3.89395 2.34704,-3.48349 l 0.3023,0.13774 0.4739,1.34895 c 0.26064,0.74192 0.76361,2.21164 1.11771,3.26604 0.35411,1.0544 0.68227,1.87359 0.72926,1.82043 0.047,-0.0532 0.56061,-1.4612 1.14138,-3.12898 1.14332,-3.28321 1.2381,-3.46056 1.84945,-3.46056 1.20403,0 1.17275,0.26609 -0.6445,5.48235 -1.59394,4.57528 -1.77699,4.95481 -2.38962,4.95481 -0.60561,0 -0.74424,-0.26259 -1.8465,-3.49753 -0.58408,-1.71419 -1.09684,-3.15734 -1.13946,-3.207 -0.0426,-0.0497 -0.58561,1.34298 -1.20662,3.09474 -1.28988,3.63849 -1.61518,4.09055 -2.48553,3.45414 z M 7.0996935,7.6148304 c -0.20025,-0.089 -0.50062,-0.30971 -0.66749,-0.49048 l -0.30341,-0.32865 v -0.72772 -0.72773 l 0.44532,-0.4081 c 1.12709,-1.0329 2.77078,-0.34777 2.77078,1.15493 0,1.19734 -1.18081,2.00082 -2.2452,1.52775 z m 5.0972195,-0.0516 c -1.22926,-0.58079 -1.22824,-2.40218 0.002,-2.98581 1.43188,-0.67947 2.94844,0.97594 2.12752,2.32229 -0.48054,0.7881 -1.31506,1.04817 -2.12918,0.66352 z m 5.16652,0.0169 c -1.49696,-0.78686 -1.12159,-2.94226 0.54801,-3.14668 0.88706,-0.1086 1.71248,0.56167 1.82517,1.4821 0.155,1.26604 -1.2528,2.25349 -2.37318,1.66458 z"
     id="path18" /></svg>
