<?xml version="1.0" encoding="UTF-8" standalone="no"?>
<!-- Created with Inkscape (http://www.inkscape.org/) -->

<svg
   width="44.750595mm"
   height="31.256853mm"
   viewBox="0 0 44.750595 31.256853"
   version="1.1"
   id="svg1"
   inkscape:version="1.3.2 (091e20e, 2023-11-25, custom)"
   sodipodi:docname="aimpere.svg"
   xml:space="preserve"
   xmlns:inkscape="http://www.inkscape.org/namespaces/inkscape"
   xmlns:sodipodi="http://sodipodi.sourceforge.net/DTD/sodipodi-0.dtd"
   xmlns="http://www.w3.org/2000/svg"
   xmlns:svg="http://www.w3.org/2000/svg"><sodipodi:namedview
     id="namedview1"
     pagecolor="#ffffff"
     bordercolor="#000000"
     borderopacity="0.25"
     inkscape:showpageshadow="2"
     inkscape:pageopacity="0.0"
     inkscape:pagecheckerboard="0"
     inkscape:deskcolor="#d1d1d1"
     inkscape:document-units="mm"
     showgrid="false"
     inkscape:zoom="2.8284271"
     inkscape:cx="149.72986"
     inkscape:cy="424.7944"
     inkscape:window-width="1920"
     inkscape:window-height="991"
     inkscape:window-x="-9"
     inkscape:window-y="-9"
     inkscape:window-maximized="1"
     inkscape:current-layer="svg1"><inkscape:grid
       id="grid2"
       units="mm"
       originx="-36.594658"
       originy="-105.88237"
       spacingx="0.99999998"
       spacingy="1"
       empcolor="#0099e5"
       empopacity="0.30196078"
       color="#0099e5"
       opacity="0.14901961"
       empspacing="5"
       dotted="false"
       gridanglex="30"
       gridanglez="30"
       visible="false" /></sodipodi:namedview><defs
     id="defs1" /><path
     style="fill:#000000;stroke-width:1.44973"
     d="m 14.197389,31.205833 c -4.076973,-0.15292 -7.2635057,-0.40379 -8.7364737,-0.68784 -2.571847,-0.49592 -4.201325,-2.11808 -4.75139404,-4.73007 C 0.19784826,23.358253 -1.7399661e-6,20.531273 -1.7399661e-6,15.649873 -1.7399661e-6,9.214603 0.41695626,5.441893 1.3192293,3.713223 2.0646473,2.285083 3.5478843,1.154993 5.1338813,0.806793 7.4850163,0.290633 13.706289,-0.001317 22.326514,2.9968027e-6 32.601916,0.001003 38.606485,0.373783 40.519274,1.127733 c 1.485046,0.58536 2.779431,1.99065 3.256657,3.53573 1.220236,3.95067 1.31644,16.35812 0.165603,21.35806 -0.51294,2.22852 -1.944938,3.79396 -4.006799,4.38021 -0.987329,0.28071 -3.287382,0.51585 -7.049701,0.72068 -2.270147,0.12367 -15.984374,0.18483 -18.687645,0.0834 z m 9.496346,-12.17729 c 3.153747,-1.81619 5.729773,-3.34041 5.724503,-3.38713 -0.0081,-0.0719 -11.37417,-6.67236 -11.489894,-6.67236 -0.02208,0 -0.04014,3.00637 -0.04014,6.68082 0,3.67447 0.01608,6.68084 0.03572,6.68084 0.01964,0 2.616065,-1.48598 5.769811,-3.30217 z"
     id="path19" /></svg>
